<?xml version="1.0" encoding="UTF-8" standalone="no"?>
<svg
   xmlns:dc="http://purl.org/dc/elements/1.1/"
   xmlns:cc="http://creativecommons.org/ns#"
   xmlns:rdf="http://www.w3.org/1999/02/22-rdf-syntax-ns#"
   xmlns:svg="http://www.w3.org/2000/svg"
   xmlns="http://www.w3.org/2000/svg"
   xmlns:sodipodi="http://sodipodi.sourceforge.net/DTD/sodipodi-0.dtd"
   xmlns:inkscape="http://www.inkscape.org/namespaces/inkscape"
   version="1.1"
   id="svg2"
   xml:space="preserve"
   width="521.66797"
   height="236.39185"
   viewBox="0 0 521.66796 236.39184"
   sodipodi:docname="logo.svg"
   inkscape:version="0.92.5 (2060ec1f9f, 2020-04-08)"><metadata
     id="metadata8"><rdf:RDF><cc:Work
         rdf:about=""><dc:format>image/svg+xml</dc:format><dc:type
           rdf:resource="http://purl.org/dc/dcmitype/StillImage" /><dc:title></dc:title></cc:Work></rdf:RDF></metadata><defs
     id="defs6" /><sodipodi:namedview
     pagecolor="#ffffff"
     bordercolor="#666666"
     borderopacity="1"
     objecttolerance="10"
     gridtolerance="10"
     guidetolerance="10"
     inkscape:pageopacity="0"
     inkscape:pageshadow="2"
     inkscape:window-width="3164"
     inkscape:window-height="1747"
     id="namedview4"
     showgrid="false"
     inkscape:zoom="2.9"
     inkscape:cx="225.53841"
     inkscape:cy="194.92199"
     inkscape:window-x="36"
     inkscape:window-y="0"
     inkscape:window-maximized="1"
     inkscape:current-layer="g10" /><g
     id="g10"
     inkscape:groupmode="layer"
     inkscape:label="atc logo"
     transform="matrix(1.3333333,0,0,-1.3333333,97.384118,-83.823785)"><path
       d="m -73.03809,42.65723 v 0.1875 c 0.26563,0.02832 0.46485,0.12304 0.59766,0.28466 0.13281,0.16114 0.35547,0.61084 0.66895,1.34913 l 2.08496,4.91308 h 0.21386 l 2.47852,-5.66748 c 0.16211,-0.37549 0.29101,-0.60791 0.38769,-0.69726 0.09668,-0.08936 0.25879,-0.14991 0.48731,-0.18213 v -0.1875 h -2.53516 v 0.1875 c 0.292,0.02539 0.48047,0.05664 0.56543,0.09375 0.08399,0.03711 0.12696,0.12841 0.12696,0.27343 0,0.04834 -0.01661,0.13379 -0.04883,0.25586 -0.03321,0.12256 -0.07813,0.25147 -0.13672,0.38672 l -0.39942,0.95899 h -2.62597 c -0.26953,-0.65235 -0.42969,-1.04981 -0.47949,-1.19336 -0.05079,-0.14356 -0.07618,-0.25684 -0.07618,-0.34082 0,-0.167 0.06836,-0.28321 0.20508,-0.34766 0.08496,-0.03857 0.24414,-0.06738 0.47852,-0.08691 v -0.1875 h -1.99317 m 4.32129,2.5625 -1.14843,2.75879 -1.13965,-2.75879 z"
       style="fill:#231f20;fill-opacity:1;fill-rule:nonzero;stroke:none"
       id="path12"
       inkscape:connector-curvature="0" /><path
       d="m -62.75391,44.6416 c 0.16602,-0.44726 0.36231,-0.8042 0.58692,-1.07031 0.39062,-0.46387 0.87695,-0.69531 1.45703,-0.69531 0.31445,0 0.58594,0.10156 0.81543,0.30371 0.22851,0.20312 0.34375,0.48584 0.34375,0.84863 0,0.32715 -0.11719,0.61133 -0.35156,0.85352 -0.1543,0.1538 -0.47657,0.38427 -0.96778,0.6914 l -0.85449,0.53516 c -0.25684,0.16308 -0.46094,0.32812 -0.61133,0.49512 -0.27832,0.31689 -0.41797,0.66699 -0.41797,1.04882 0,0.50684 0.16797,0.92871 0.50586,1.26563 0.33692,0.33642 0.78321,0.50488 1.33985,0.50488 0.22949,0 0.50488,-0.05371 0.82715,-0.16015 0.32226,-0.10694 0.50683,-0.16016 0.55273,-0.16016 0.12402,0 0.20996,0.02783 0.25781,0.0835 0.04688,0.05566 0.08399,0.13476 0.11035,0.23681 h 0.1875 l 0.21875,-2.125 h -0.23437 c -0.16406,0.63965 -0.42676,1.08594 -0.78906,1.33887 -0.36231,0.25293 -0.72071,0.37988 -1.07422,0.37988 -0.27539,0 -0.51563,-0.08105 -0.72071,-0.24316 -0.2041,-0.16162 -0.30664,-0.38672 -0.30664,-0.67383 0,-0.25879 0.07813,-0.47949 0.23438,-0.66211 0.15625,-0.18652 0.40039,-0.38135 0.73047,-0.58398 l 0.88183,-0.54444 c 0.55176,-0.34033 0.94043,-0.65185 1.16504,-0.93506 0.22071,-0.28662 0.33203,-0.625 0.33203,-1.01562 0,-0.52442 -0.19629,-0.96289 -0.58789,-1.31445 -0.3916,-0.35157 -0.89258,-0.52735 -1.50195,-0.52735 -0.30664,0 -0.62695,0.0586 -0.95996,0.17578 -0.33399,0.11719 -0.52442,0.17578 -0.57324,0.17578 -0.11621,0 -0.19434,-0.03711 -0.23438,-0.1123 -0.04101,-0.07422 -0.06738,-0.1543 -0.08008,-0.23926 h -0.21875 l -0.29687,2.125 z"
       style="fill:#231f20;fill-opacity:1;fill-rule:nonzero;stroke:none"
       id="path14"
       inkscape:connector-curvature="0" /><path
       d="m -55.19238,42.84473 c 0.39941,0.02881 0.65722,0.08886 0.77636,0.18066 0.11719,0.09082 0.17676,0.32813 0.17676,0.70996 v 4.46875 c 0,0.36426 -0.05957,0.59912 -0.17676,0.7041 -0.11914,0.10498 -0.37695,0.167 -0.77636,0.18653 v 0.1875 h 2.92187 v -0.1875 c -0.39941,-0.01953 -0.65722,-0.08155 -0.77637,-0.18653 -0.11718,-0.10498 -0.17675,-0.33984 -0.17675,-0.7041 v -4.46875 c 0,-0.38183 0.05957,-0.61914 0.17675,-0.70996 0.11915,-0.0918 0.37696,-0.15185 0.77637,-0.18066 v -0.1875 h -2.92187 z"
       style="fill:#231f20;fill-opacity:1;fill-rule:nonzero;stroke:none"
       id="path16"
       inkscape:connector-curvature="0" /><path
       d="m -49.4248,42.65723 v 0.1875 c 0.26562,0.02832 0.46484,0.12304 0.59765,0.28466 0.13281,0.16114 0.35547,0.61084 0.66895,1.34913 l 2.08496,4.91308 h 0.21386 l 2.47852,-5.66748 c 0.16211,-0.37549 0.29102,-0.60791 0.3877,-0.69726 0.09668,-0.08936 0.25878,-0.14991 0.4873,-0.18213 v -0.1875 h -2.53516 v 0.1875 c 0.292,0.02539 0.48047,0.05664 0.56543,0.09375 0.08399,0.03711 0.12696,0.12841 0.12696,0.27343 0,0.04834 -0.0166,0.13379 -0.04883,0.25586 -0.0332,0.12256 -0.07813,0.25147 -0.13672,0.38672 l -0.39941,0.95899 h -2.62598 c -0.26953,-0.65235 -0.42969,-1.04981 -0.47949,-1.19336 -0.05078,-0.14356 -0.07617,-0.25684 -0.07617,-0.34082 0,-0.167 0.06835,-0.28321 0.20507,-0.34766 0.08496,-0.03857 0.24414,-0.06738 0.47852,-0.08691 v -0.1875 h -1.99316 m 4.32128,2.5625 -1.14843,2.75879 -1.13965,-2.75879 z"
       style="fill:#231f20;fill-opacity:1;fill-rule:nonzero;stroke:none"
       id="path18"
       inkscape:connector-curvature="0" /><path
       d="m -39.71875,42.84473 c 0.41211,0.04199 0.67676,0.13574 0.79297,0.28076 0.11719,0.14502 0.17578,0.48096 0.17578,1.0083 v 4.40918 l -0.13672,0.16113 c -0.14551,0.17236 -0.26953,0.2793 -0.37207,0.31983 -0.10254,0.04052 -0.25586,0.06396 -0.45996,0.0708 v 0.1875 h 1.7002 l 3.8623,-4.80274 v 3.33496 c 0,0.54834 -0.08105,0.90528 -0.24316,1.07129 -0.10645,0.10645 -0.34375,0.17676 -0.70997,0.20899 v 0.1875 h 2.34375 v -0.1875 c -0.38085,-0.03907 -0.63574,-0.13233 -0.76269,-0.2793 -0.12695,-0.14648 -0.19043,-0.48242 -0.19043,-1.00781 v -5.27539 h -0.16992 l -4.42383,5.5 v -3.89795 c 0,-0.54737 0.08008,-0.90381 0.23926,-1.06983 0.10449,-0.10742 0.33691,-0.18066 0.69824,-0.21972 v -0.1875 h -2.34375 z"
       style="fill:#231f20;fill-opacity:1;fill-rule:nonzero;stroke:none"
       id="path20"
       inkscape:connector-curvature="0" /><path
       d="m -24.84668,49.42285 h 5.98047 l 0.0098,-2.01562 h -0.28906 c -0.09375,0.71875 -0.36035,1.20459 -0.80176,1.458 -0.24902,0.13965 -0.61914,0.21631 -1.1123,0.2295 V 43.8252 c 0,-0.36817 0.06348,-0.61231 0.19043,-0.7334 0.12695,-0.12012 0.3916,-0.18067 0.79394,-0.18067 v -0.2539 h -3.5625 v 0.2539 c 0.39551,0 0.65821,0.06104 0.78907,0.1836 0.12988,0.12207 0.19531,0.36523 0.19531,0.73047 v 5.26953 c -0.4834,-0.01319 -0.85449,-0.08985 -1.11231,-0.2295 -0.47265,-0.25976 -0.74023,-0.74609 -0.80175,-1.458 h -0.28907 l 0.0098,2.01562 z"
       style="fill:#231f20;fill-opacity:1;fill-rule:nonzero;stroke:none"
       id="path22"
       inkscape:connector-curvature="0" /><path
       d="m -12.38965,49.42285 v -0.25 c -0.38574,-0.01318 -0.64453,-0.07324 -0.77441,-0.18164 -0.12989,-0.10742 -0.19434,-0.35449 -0.19434,-0.74023 v -3.35743 c 0,-0.50976 0.05957,-0.90332 0.17969,-1.18066 0.21777,-0.5166 0.63379,-0.77441 1.24902,-0.77441 0.76465,0 1.28125,0.28613 1.55078,0.8584 0.14844,0.31445 0.22364,0.7539 0.22364,1.32031 v 3.07129 c 0,0.35742 -0.06543,0.60351 -0.19727,0.73828 -0.13184,0.13476 -0.38867,0.21679 -0.77148,0.24609 v 0.25 h 2.1875 v -0.25 C -9.25391,49.11084 -9.46289,49.03516 -9.56445,48.94629 -9.66699,48.85645 -9.71777,48.65088 -9.71777,48.3291 v -3.20703 c 0,-0.85156 -0.20508,-1.50928 -0.61426,-1.97266 -0.40918,-0.46386 -1.05274,-0.69531 -1.92969,-0.69531 -1.14746,0 -1.93164,0.34375 -2.35449,1.03223 -0.22363,0.36523 -0.33594,0.83642 -0.33594,1.41406 v 3.35059 c 0,0.3789 -0.0498,0.61767 -0.15039,0.71582 -0.10059,0.09814 -0.32617,0.16699 -0.67773,0.20605 v 0.25 z"
       style="fill:#231f20;fill-opacity:1;fill-rule:nonzero;stroke:none"
       id="path24"
       inkscape:connector-curvature="0" /><path
       d="m -6.05859,42.90723 c 0.33691,0.0166 0.56738,0.08007 0.69043,0.19238 0.12304,0.11133 0.18457,0.35449 0.18457,0.72949 v 4.42188 c 0,0.38867 -0.07325,0.64257 -0.21875,0.75976 -0.09766,0.07862 -0.31641,0.13281 -0.65625,0.16211 v 0.25 h 3.22168 c 0.66796,0 1.20898,-0.07031 1.62207,-0.20996 0.80273,-0.28418 1.20312,-0.79394 1.20312,-1.53076 0,-0.54443 -0.20996,-0.97315 -0.62891,-1.28565 -0.32128,-0.23535 -0.66015,-0.38476 -1.01855,-0.45019 L 0.4668,43.10645 c 0.05664,-0.07764 0.11621,-0.12891 0.17968,-0.15332 0.0625,-0.02442 0.14063,-0.03956 0.23438,-0.0459 v -0.25 h -2.08691 l -2.33887,3.125 H -3.55859 V 43.8291 c 0,-0.35498 0.05859,-0.59424 0.1748,-0.71728 0.11719,-0.12354 0.35059,-0.19141 0.7002,-0.20459 v -0.25 h -3.375 v 0.25 m 3.90527,3.47851 c 0.28223,0.17383 0.42285,0.57617 0.42285,1.20655 0,0.38671 -0.05371,0.69189 -0.16113,0.9165 -0.18653,0.37988 -0.52442,0.57031 -1.0166,0.57031 -0.26758,0 -0.44336,-0.0332 -0.52539,-0.1001 -0.08399,-0.06689 -0.125,-0.17627 -0.125,-0.32861 v -2.54004 c 0.65429,0.0098 1.12304,0.10156 1.40527,0.27539 z"
       style="fill:#231f20;fill-opacity:1;fill-rule:nonzero;stroke:none"
       id="path26"
       inkscape:connector-curvature="0" /><path
       d="m 3.67871,42.90723 c 0.28223,0.0098 0.48242,0.04882 0.60059,0.11718 0.18359,0.1045 0.27441,0.30079 0.27441,0.58789 v 4.85059 c 0,0.29053 -0.08984,0.48633 -0.26953,0.58789 -0.1084,0.06152 -0.31055,0.10254 -0.60547,0.12207 v 0.25 H 9.35059 V 47.40723 H 9.09277 C 8.96875,48.02588 8.75977,48.45898 8.4668,48.70703 8.17383,48.95508 7.63184,49.0791 6.84277,49.0791 6.5498,49.0791 6.36328,49.04541 6.2832,48.97852 6.20313,48.91162 6.16309,48.78662 6.16309,48.604 v -2.32177 c 0.54394,-0.0098 0.91211,0.10205 1.10351,0.33545 0.19238,0.23339 0.33692,0.60595 0.43555,1.11767 H 7.95996 V 44.3916 H 7.70215 C 7.63281,44.92969 7.49414,45.32227 7.28711,45.56836 7.07813,45.81543 6.7041,45.93848 6.16309,45.93848 v -2.32813 c 0,-0.30957 0.08984,-0.50537 0.26953,-0.58838 0.17968,-0.08301 0.4541,-0.12158 0.82422,-0.11474 v -0.25 H 3.67871 Z"
       style="fill:#231f20;fill-opacity:1;fill-rule:nonzero;stroke:none"
       id="path28"
       inkscape:connector-curvature="0" /><path
       d="m 13.4375,48.49512 c 0.66602,0.70215 1.51563,1.05273 2.54883,1.05273 0.41406,0 0.82617,-0.07812 1.2373,-0.23437 0.41114,-0.15625 0.667,-0.23438 0.76758,-0.23438 0.10742,0 0.19434,0.03858 0.25977,0.11621 0.06543,0.07715 0.11816,0.19434 0.16113,0.35254 h 0.28125 V 47.2041 h -0.25 c -0.24121,0.50488 -0.48731,0.90283 -0.73828,1.19434 -0.46875,0.53711 -1,0.80566 -1.59278,0.80566 -0.64453,0 -1.11523,-0.27978 -1.4121,-0.83935 -0.2959,-0.55957 -0.44434,-1.34668 -0.44434,-2.36133 0,-0.83252 0.13769,-1.5752 0.41406,-2.22705 0.27539,-0.65235 0.80762,-0.97852 1.59766,-0.97852 0.42676,0 0.71387,0.08936 0.86133,0.26856 0.08398,0.10058 0.12695,0.25341 0.12695,0.45849 v 1.0542 c 0,0.30664 -0.09375,0.5083 -0.2793,0.60401 -0.12109,0.05908 -0.36718,0.09228 -0.73633,0.09912 v 0.25 h 3.42188 v -0.25 C 19.32129,45.26904 19.0957,45.19922 18.98438,45.07227 18.87402,44.94629 18.81836,44.7085 18.81836,44.36035 V 43.08643 C 18.5957,42.9458 18.2373,42.80566 17.74023,42.66504 17.24414,42.52441 16.68945,42.4541 16.0752,42.4541 c -1.11426,0 -2.00391,0.35059 -2.66993,1.05274 -0.62011,0.65576 -0.93066,1.47851 -0.93066,2.46728 0,0.99854 0.32129,1.83936 0.96289,2.521 z"
       style="fill:#231f20;fill-opacity:1;fill-rule:nonzero;stroke:none"
       id="path30"
       inkscape:connector-curvature="0" /><path
       d="m 22.5498,42.90723 c 0.33692,0.0166 0.56739,0.08007 0.69043,0.19238 0.12305,0.11133 0.18457,0.35449 0.18457,0.72949 v 4.42188 c 0,0.38867 -0.07324,0.64257 -0.21875,0.75976 -0.09667,0.07862 -0.31542,0.13281 -0.65625,0.16211 v 0.25 h 3.22168 c 0.66797,0 1.20899,-0.07031 1.62305,-0.20996 0.80078,-0.28418 1.20215,-0.79394 1.20215,-1.53076 0,-0.54443 -0.20996,-0.97315 -0.62988,-1.28565 -0.32032,-0.23535 -0.66016,-0.38476 -1.01758,-0.45019 l 2.12598,-2.83984 c 0.05664,-0.07764 0.11621,-0.12891 0.17968,-0.15332 0.06348,-0.02442 0.1416,-0.03956 0.23438,-0.0459 v -0.25 h -2.08692 l -2.33984,3.125 H 25.0498 V 43.8291 c 0,-0.35498 0.0586,-0.59424 0.17481,-0.71728 0.11719,-0.12354 0.34961,-0.19141 0.70019,-0.20459 v -0.25 h -3.375 v 0.25 m 3.90528,3.47851 c 0.28125,0.17383 0.42285,0.57617 0.42285,1.20655 0,0.38671 -0.05371,0.69189 -0.16113,0.9165 -0.18555,0.37988 -0.52539,0.57031 -1.0166,0.57031 -0.26758,0 -0.44239,-0.0332 -0.52637,-0.1001 C 25.0918,48.91211 25.0498,48.80273 25.0498,48.65039 v -2.54004 c 0.65528,0.0098 1.12305,0.10156 1.40528,0.27539 z"
       style="fill:#231f20;fill-opacity:1;fill-rule:nonzero;stroke:none"
       id="path32"
       inkscape:connector-curvature="0" /><path
       d="m 32.30273,42.90723 c 0.24122,0.0166 0.43555,0.12597 0.58301,0.3291 0.09473,0.12744 0.22949,0.40918 0.40625,0.84472 l 2.21875,5.48243 h 0.28711 l 2.22949,-5.26172 c 0.25,-0.59278 0.4375,-0.97461 0.56055,-1.14649 0.12402,-0.17187 0.29981,-0.25488 0.52734,-0.24804 v -0.25 h -3.23437 v 0.25 c 0.31836,0.01269 0.52832,0.04052 0.62891,0.083 0.10156,0.042 0.15136,0.14942 0.15136,0.32129 0,0.07813 -0.02636,0.19629 -0.07812,0.35547 -0.03223,0.09571 -0.07715,0.21094 -0.13281,0.34619 l -0.25586,0.6128 H 33.95996 C 33.81348,44.22656 33.71973,43.9668 33.67773,43.8457 33.58984,43.58691 33.5459,43.39844 33.5459,43.28076 c 0,-0.14404 0.0957,-0.24902 0.28808,-0.31445 0.11524,-0.03613 0.28711,-0.05615 0.51563,-0.05908 v -0.25 h -2.04688 v 0.25 m 3.74219,2.10937 -0.96972,2.32813 h -0.04981 l -0.9082,-2.32813 z"
       style="fill:#231f20;fill-opacity:1;fill-rule:nonzero;stroke:none"
       id="path34"
       inkscape:connector-curvature="0" /><path
       d="m 42.19629,44.98535 h 0.28906 c 0.1582,-0.74219 0.41504,-1.28222 0.76856,-1.61914 0.35351,-0.3374 0.75781,-0.50586 1.21484,-0.50586 0.44434,0 0.75977,0.11621 0.94727,0.34863 0.18652,0.23243 0.28027,0.47706 0.28027,0.73389 0,0.29883 -0.09766,0.54248 -0.29297,0.73096 -0.12891,0.12402 -0.39062,0.28467 -0.78516,0.48291 l -0.63476,0.32178 c -0.63086,0.31836 -1.0752,0.63378 -1.33496,0.9458 -0.25977,0.31201 -0.38965,0.69726 -0.38965,1.15576 0,0.4873 0.17187,0.94238 0.51562,1.36523 0.34375,0.42237 0.87012,0.63379 1.58008,0.63379 0.36035,0 0.70996,-0.05615 1.04785,-0.16797 0.33692,-0.1123 0.5293,-0.16797 0.57715,-0.16797 0.1084,0 0.1836,0.03077 0.22559,0.09229 0.04101,0.06152 0.07519,0.14258 0.10058,0.24365 h 0.29688 v -2.17187 h -0.28125 c -0.12988,0.50683 -0.35938,0.94336 -0.6875,1.30957 -0.32813,0.36621 -0.72656,0.5498 -1.19531,0.5498 -0.33008,0 -0.59082,-0.0918 -0.78223,-0.27539 -0.19238,-0.18359 -0.28809,-0.40723 -0.28809,-0.67041 0,-0.31543 0.08985,-0.55127 0.26954,-0.70703 0.17578,-0.15918 0.57226,-0.39307 1.18847,-0.70166 l 0.73828,-0.37109 c 0.3291,-0.16553 0.59082,-0.34913 0.78711,-0.55079 0.36524,-0.37744 0.54785,-0.83593 0.54785,-1.37597 0,-0.50391 -0.19628,-0.97949 -0.58789,-1.42676 -0.3916,-0.44727 -1.01953,-0.6709 -1.88281,-0.6709 -0.19824,0 -0.39941,0.01856 -0.60254,0.05469 -0.20312,0.03613 -0.40429,0.0918 -0.60156,0.16797 l -0.19238,0.0708 c -0.04493,0.01221 -0.08789,0.02295 -0.12989,0.03076 -0.04101,0.0078 -0.07617,0.01172 -0.10546,0.01172 -0.10157,0 -0.17188,-0.0293 -0.21094,-0.08789 -0.03809,-0.05811 -0.07227,-0.14063 -0.10059,-0.24805 h -0.28906 z"
       style="fill:#231f20;fill-opacity:1;fill-rule:nonzero;stroke:none"
       id="path36"
       inkscape:connector-curvature="0" /><path
       d="m 50.25781,44.98535 h 0.28907 c 0.1582,-0.74219 0.41406,-1.28222 0.76757,-1.61914 0.35352,-0.3374 0.75977,-0.50586 1.21582,-0.50586 0.44434,0 0.75977,0.11621 0.94629,0.34863 0.1875,0.23243 0.28125,0.47706 0.28125,0.73389 0,0.29883 -0.09765,0.54248 -0.29297,0.73096 -0.1289,0.12402 -0.39062,0.28467 -0.78515,0.48291 l -0.63477,0.32178 c -0.63086,0.31836 -1.07519,0.63378 -1.33496,0.9458 -0.25976,0.31201 -0.38965,0.69726 -0.38965,1.15576 0,0.4873 0.17188,0.94238 0.51563,1.36523 0.34375,0.42237 0.87011,0.63379 1.58008,0.63379 0.36132,0 0.70996,-0.05615 1.04687,-0.16797 0.33789,-0.1123 0.53027,-0.16797 0.57813,-0.16797 0.10839,0 0.18359,0.03077 0.22558,0.09229 0.04102,0.06152 0.0752,0.14258 0.10059,0.24365 h 0.29687 v -2.17187 h -0.28125 c -0.12988,0.50683 -0.35937,0.94336 -0.6875,1.30957 -0.32812,0.36621 -0.72656,0.5498 -1.19531,0.5498 -0.33008,0 -0.59082,-0.0918 -0.7832,-0.27539 -0.19141,-0.18359 -0.28711,-0.40723 -0.28711,-0.67041 0,-0.31543 0.08984,-0.55127 0.26953,-0.70703 0.17578,-0.15918 0.57226,-0.39307 1.18945,-0.70166 l 0.73731,-0.37109 c 0.3291,-0.16553 0.59082,-0.34913 0.78711,-0.55079 0.36523,-0.37744 0.54785,-0.83593 0.54785,-1.37597 0,-0.50391 -0.19629,-0.97949 -0.58789,-1.42676 -0.3916,-0.44727 -1.01953,-0.6709 -1.88282,-0.6709 -0.19824,0 -0.39941,0.01856 -0.60253,0.05469 -0.20313,0.03613 -0.40332,0.0918 -0.60254,0.16797 l -0.19141,0.0708 c -0.04492,0.01221 -0.08789,0.02295 -0.12988,0.03076 -0.04102,0.0078 -0.07617,0.01172 -0.10547,0.01172 -0.10254,0 -0.17285,-0.0293 -0.21094,-0.08789 -0.03808,-0.05811 -0.07129,-0.14063 -0.10058,-0.24805 h -0.28907 z"
       style="fill:#231f20;fill-opacity:1;fill-rule:nonzero;stroke:none"
       id="path38"
       inkscape:connector-curvature="0" /><path
       d="m 66.66602,49.3916 c -1.03907,0 -1.88379,-0.34717 -2.53223,-1.04101 -0.61621,-0.66163 -0.92383,-1.4795 -0.92383,-2.45362 0,-0.95166 0.29102,-1.74511 0.87402,-2.38037 0.63086,-0.6875 1.48438,-1.03125 2.5586,-1.03125 0.65332,0 1.26074,0.17871 1.82031,0.53711 0.3291,0.21192 0.60352,0.45801 0.8252,0.73828 l -0.1836,0.18555 c -0.2998,-0.28418 -0.57519,-0.49609 -0.82617,-0.63574 -0.4375,-0.24805 -0.91504,-0.37207 -1.43262,-0.37207 -0.71777,0 -1.31054,0.2666 -1.77734,0.7998 -0.46875,0.5332 -0.70215,1.24707 -0.70215,2.14063 0,0.97265 0.22266,1.73535 0.66797,2.29004 0.44531,0.55468 1.01855,0.83203 1.71973,0.83203 0.69531,0 1.24804,-0.25879 1.65918,-0.77539 0.21484,-0.27442 0.38964,-0.63575 0.52343,-1.08399 h 0.22657 l -0.09375,2.25 h -0.20313 c -0.03223,-0.11084 -0.09082,-0.19238 -0.17578,-0.24414 -0.08496,-0.05225 -0.1748,-0.07812 -0.26855,-0.07812 -0.04688,0 -0.25977,0.05371 -0.64063,0.16113 -0.38184,0.10742 -0.75293,0.16113 -1.11523,0.16113 z"
       style="fill:#231f20;fill-opacity:1;fill-rule:nonzero;stroke:none"
       id="path40"
       inkscape:connector-curvature="0" /><path
       d="m 72.23926,42.84473 c 0.36621,0.03857 0.60351,0.10351 0.71191,0.19531 0.1084,0.09082 0.16309,0.32324 0.16309,0.69531 v 4.46875 c 0,0.35156 -0.05371,0.58154 -0.16016,0.68945 -0.10742,0.1084 -0.3457,0.1753 -0.71484,0.20118 v 0.1875 h 5.3125 l 0.04687,-1.40625 h -0.25 c -0.08496,0.43945 -0.21191,0.72363 -0.38183,0.85302 -0.16895,0.1294 -0.54688,0.19385 -1.13379,0.19385 h -1.37598 c -0.14844,0 -0.24023,-0.02392 -0.27539,-0.07129 -0.03418,-0.04785 -0.05176,-0.13769 -0.05176,-0.26904 V 46.3291 h 1.54688 c 0.4248,0 0.69531,0.0625 0.81152,0.18848 0.11719,0.12597 0.21094,0.38086 0.28223,0.76465 h 0.23437 v -2.29688 h -0.23437 c -0.0752,0.38574 -0.16992,0.64063 -0.28711,0.76563 -0.11621,0.125 -0.38574,0.1875 -0.80664,0.1875 h -1.54688 v -2.48389 c 0,-0.19971 0.0625,-0.31689 0.18848,-0.35303 0.125,-0.03613 0.50195,-0.05371 1.12793,-0.05371 0.67871,0 1.17969,0.07324 1.50293,0.21875 0.32226,0.14649 0.61523,0.50049 0.87793,1.0625 h 0.27148 l -0.44238,-1.67187 h -5.41699 z"
       style="fill:#231f20;fill-opacity:1;fill-rule:nonzero;stroke:none"
       id="path42"
       inkscape:connector-curvature="0" /><path
       d="m 80.84766,42.84473 c 0.41211,0.04199 0.67675,0.13574 0.79297,0.28076 0.11718,0.14502 0.17578,0.48096 0.17578,1.0083 v 4.40918 l -0.13672,0.16113 c -0.14551,0.17236 -0.26953,0.2793 -0.37207,0.31983 -0.10254,0.04052 -0.25586,0.06396 -0.45996,0.0708 v 0.1875 h 1.70019 l 3.86231,-4.80274 v 3.33496 c 0,0.54834 -0.08106,0.90528 -0.24317,1.07129 -0.10644,0.10645 -0.34375,0.17676 -0.70996,0.20899 v 0.1875 h 2.34375 v -0.1875 c -0.38086,-0.03907 -0.63574,-0.13233 -0.76269,-0.2793 -0.12696,-0.14648 -0.19043,-0.48242 -0.19043,-1.00781 v -5.27539 h -0.16993 l -4.42382,5.5 v -3.89795 c 0,-0.54737 0.08007,-0.90381 0.23925,-1.06983 0.1045,-0.10742 0.33692,-0.18066 0.69825,-0.21972 v -0.1875 h -2.34375 z"
       style="fill:#231f20;fill-opacity:1;fill-rule:nonzero;stroke:none"
       id="path44"
       inkscape:connector-curvature="0" /><path
       d="m 90.64746,49.28223 h 5.67188 l 0.04687,-1.70313 h -0.23437 c -0.11817,0.53272 -0.26758,0.8794 -0.44825,1.04004 -0.18164,0.16065 -0.56347,0.24121 -1.1455,0.24121 h -0.54688 v -5.125 c 0,-0.38183 0.05957,-0.61914 0.17676,-0.70996 0.11914,-0.0918 0.37695,-0.15185 0.77637,-0.18066 v -0.1875 h -2.92188 v 0.1875 c 0.42578,0.03222 0.69043,0.10205 0.7959,0.20898 0.10449,0.10693 0.15723,0.37598 0.15723,0.80664 v 5 h -0.54688 c -0.55176,0 -0.92773,-0.07959 -1.12793,-0.23877 -0.19922,-0.15918 -0.34961,-0.50683 -0.45019,-1.04248 h -0.25 z"
       style="fill:#231f20;fill-opacity:1;fill-rule:nonzero;stroke:none"
       id="path46"
       inkscape:connector-curvature="0" /><path
       d="m 99.17773,42.84473 c 0.36622,0.03857 0.60352,0.10351 0.71192,0.19531 0.1084,0.09082 0.16308,0.32324 0.16308,0.69531 v 4.46875 c 0,0.35156 -0.05371,0.58154 -0.16015,0.68945 -0.10742,0.1084 -0.3457,0.1753 -0.71485,0.20118 v 0.1875 h 5.3125 l 0.0469,-1.40625 h -0.25 c -0.085,0.43945 -0.21191,0.72363 -0.38086,0.85302 -0.16992,0.1294 -0.54785,0.19385 -1.13477,0.19385 h -1.37695 c -0.14844,0 -0.23926,-0.02392 -0.27441,-0.07129 -0.0342,-0.04785 -0.0518,-0.13769 -0.0518,-0.26904 V 46.3291 h 1.54687 c 0.42383,0 0.69532,0.0625 0.81153,0.18848 0.11719,0.12597 0.21094,0.38086 0.28222,0.76465 h 0.23438 v -2.29688 h -0.23438 c -0.0742,0.38574 -0.16992,0.64063 -0.2871,0.76563 -0.11622,0.125 -0.38575,0.1875 -0.80665,0.1875 h -1.54687 v -2.48389 c 0,-0.19971 0.0625,-0.31689 0.18848,-0.35303 0.12597,-0.03613 0.50195,-0.05371 1.12793,-0.05371 0.67871,0 1.17968,0.07324 1.50293,0.21875 0.32324,0.14649 0.61523,0.50049 0.87793,1.0625 h 0.27148 l -0.44336,-1.67187 h -5.41602 v 0.1875 z"
       style="fill:#231f20;fill-opacity:1;fill-rule:nonzero;stroke:none"
       id="path48"
       inkscape:connector-curvature="0" /><path
       d="m 107.77051,42.84473 c 0.3916,0.03564 0.63476,0.11035 0.73047,0.22363 0.0967,0.11328 0.14453,0.37695 0.14453,0.79199 v 4.34375 c 0,0.34863 -0.0537,0.57666 -0.16113,0.68457 -0.1084,0.1084 -0.34571,0.17676 -0.71387,0.20606 v 0.1875 h 2.78222 c 0.57813,0 1.06055,-0.07325 1.44727,-0.21973 0.73242,-0.27637 1.09863,-0.78613 1.09863,-1.52783 0,-0.49805 -0.16308,-0.88037 -0.4873,-1.14697 -0.3252,-0.26709 -0.7666,-0.44288 -1.3252,-0.52735 l 2.06641,-2.5415 c 0.12695,-0.15479 0.25391,-0.26807 0.38184,-0.33838 0.12695,-0.07129 0.29003,-0.11621 0.48925,-0.13574 v -0.1875 h -1.63867 l -2.51465,3.09375 -0.40918,-0.03125 v -1.97461 c 0,-0.37012 0.0557,-0.60449 0.16895,-0.70313 0.11133,-0.09961 0.35644,-0.16504 0.73437,-0.19726 v -0.1875 h -2.79394 v 0.1875 m 3.4375,3.45312 c 0.53125,0.22119 0.79687,0.63721 0.79687,1.24805 0,0.58789 -0.23828,0.98877 -0.71386,1.20361 -0.25489,0.11572 -0.59278,0.17334 -1.01368,0.17334 -0.2832,0 -0.45703,-0.02051 -0.5205,-0.06152 -0.0635,-0.04151 -0.0957,-0.1377 -0.0957,-0.28906 V 46.0791 c 0.72168,0.02539 1.23731,0.09815 1.54688,0.21875 z"
       style="fill:#231f20;fill-opacity:1;fill-rule:nonzero;stroke:none"
       id="path50"
       inkscape:connector-curvature="0" /><path
       d="M -27.74707,38.0791 H 57.08594"
       style="fill:none;stroke:#6a791b;stroke-width:1.5;stroke-linecap:butt;stroke-linejoin:miter;stroke-miterlimit:4;stroke-dasharray:none;stroke-opacity:1"
       id="path52"
       inkscape:connector-curvature="0" /><path
       d="m -13.71484,92.20947 c 0,-15.18945 13.0039,-27.50146 29.05078,-27.50146 16.04492,0 29.05273,12.31201 29.05273,27.50146 0,15.1919 -13.00781,27.50489 -29.05273,27.50489 -16.04688,0 -29.05078,-12.31299 -29.05078,-27.50489 z"
       style="fill:#6a791b;fill-opacity:1;fill-rule:nonzero;stroke:#6a791b;stroke-width:0.77588999;stroke-linecap:butt;stroke-linejoin:miter;stroke-miterlimit:4;stroke-dasharray:none;stroke-opacity:1"
       id="path54"
       inkscape:connector-curvature="0" /><path
       d="m -16.08301,92.20947 c 0,-16.42724 14.06738,-29.7456 31.41895,-29.7456 17.35156,0 31.41992,13.31836 31.41992,29.7456 0,16.43116 -14.06836,29.74756 -31.41992,29.74756 -17.35157,0 -31.41895,-13.3164 -31.41895,-29.74756 z"
       style="fill:none;stroke:#6a791b;stroke-width:0.45789;stroke-linecap:butt;stroke-linejoin:miter;stroke-miterlimit:4;stroke-dasharray:none;stroke-opacity:1"
       id="path56"
       inkscape:connector-curvature="0" /><path
       d="m -10.81055,92.20947 c 0,-13.67041 11.70703,-24.75097 26.14649,-24.75097 14.43945,0 26.14453,11.08056 26.14453,24.75097 0,13.67188 -11.70508,24.75147 -26.14453,24.75147 -14.43946,0 -26.14649,-11.07959 -26.14649,-24.75147 z"
       style="fill:#ffffff;fill-opacity:1;fill-rule:nonzero;stroke:#6a791b;stroke-width:1.08629;stroke-linecap:butt;stroke-linejoin:miter;stroke-miterlimit:4;stroke-dasharray:none;stroke-opacity:1"
       id="path58"
       inkscape:connector-curvature="0" /><path
       d="m -7.85645,92.37207 c 0,-12.15234 10.41211,-22.00195 23.24512,-22.00195 12.83789,0 23.24024,9.84961 23.24024,22.00195 0,12.15186 -10.40235,22.00098 -23.24024,22.00098 -12.83301,0 -23.24512,-9.84912 -23.24512,-22.00098 z"
       style="fill:#6a791b;fill-opacity:1;fill-rule:nonzero;stroke:#6a791b;stroke-width:0.77588999;stroke-linecap:butt;stroke-linejoin:miter;stroke-miterlimit:4;stroke-dasharray:none;stroke-opacity:1"
       id="path60"
       inkscape:connector-curvature="0" /><path
       d="m -0.63477,92.32178 c 0,-8.35303 7.15332,-15.12744 15.97852,-15.12744 8.82617,0 15.97852,6.77441 15.97852,15.12744 0,8.35547 -7.15235,15.12939 -15.97852,15.12939 -8.8252,0 -15.97852,-6.77392 -15.97852,-15.12939 z"
       style="fill:#ffffff;fill-opacity:1;fill-rule:nonzero;stroke:none"
       id="path62"
       inkscape:connector-curvature="0" /><path
       d="m 11.79004,109.9375 -1.54492,-0.35498 -0.18457,-1.24561 -0.50782,-0.11621 0.58985,4.14991 0.53808,0.12451 2.33301,-3.48194 -0.51562,-0.11865 -0.70801,1.04297 m -0.24609,0.36914 -0.98438,1.48145 -0.25,-1.76563 z"
       style="fill:#ffffff;fill-opacity:1;fill-rule:nonzero;stroke:#ffffff;stroke-width:0.22899;stroke-linecap:butt;stroke-linejoin:miter;stroke-miterlimit:4;stroke-dasharray:none;stroke-opacity:1"
       id="path64"
       inkscape:connector-curvature="0" /><path
       d="m 13.37695,112.50977 1.29688,0.0249 0.0664,-3.47656 0.49219,0.009 -0.06445,3.47559 1.29297,0.0269 -0.0078,0.43653 -3.08204,-0.061 0.0059,-0.43554 z"
       style="fill:#ffffff;fill-opacity:1;fill-rule:nonzero;stroke:#ffffff;stroke-width:0.22899;stroke-linecap:butt;stroke-linejoin:miter;stroke-miterlimit:4;stroke-dasharray:none;stroke-opacity:1"
       id="path66"
       inkscape:connector-curvature="0" /><path
       d="m 20.0293,108.86133 c 0.3789,0.21826 0.60156,0.53613 0.68554,0.95459 l -0.46679,0.0874 c -0.0586,-0.31445 -0.22461,-0.54248 -0.49805,-0.68555 -0.27344,-0.14111 -0.56055,-0.18506 -0.85547,-0.12939 -0.39648,0.0747 -0.66211,0.2793 -0.80273,0.61182 -0.14063,0.33251 -0.16797,0.72021 -0.08594,1.15869 0.07617,0.41748 0.25391,0.76074 0.53125,1.03515 0.27344,0.27295 0.58984,0.37696 0.94727,0.3086 0.35156,-0.0649 0.60937,-0.19922 0.76367,-0.40186 0.16015,-0.20019 0.24218,-0.40576 0.24609,-0.62012 l 0.46289,-0.0859 c 0.0332,0.33789 -0.0664,0.65527 -0.29687,0.95215 -0.23243,0.29589 -0.59571,0.49023 -1.09571,0.58544 -0.49023,0.0933 -0.92578,-0.0254 -1.30859,-0.35302 -0.38477,-0.32569 -0.63281,-0.78418 -0.74219,-1.37061 -0.10742,-0.55762 -0.05469,-1.04541 0.1543,-1.46338 0.20898,-0.41943 0.58789,-0.67968 1.14062,-0.78418 0.43946,-0.0825 0.84766,-0.0176 1.22071,0.2002 z"
       style="fill:#ffffff;fill-opacity:1;fill-rule:nonzero;stroke:#ffffff;stroke-width:0.22899;stroke-linecap:butt;stroke-linejoin:miter;stroke-miterlimit:4;stroke-dasharray:none;stroke-opacity:1"
       id="path68"
       inkscape:connector-curvature="0" /><path
       d="m -1.14844,103.35742 1.0166,1.2168 -0.60839,1.10351 0.33007,0.40186 2.04981,-3.66064 -0.35449,-0.42334 -3.96582,1.35742 0.33789,0.40674 1.19433,-0.40235 m 0.4209,-0.14355 1.68262,-0.58301 -0.87012,1.55664 z"
       style="fill:#ffffff;fill-opacity:1;fill-rule:nonzero;stroke:#ffffff;stroke-width:0.22899;stroke-linecap:butt;stroke-linejoin:miter;stroke-miterlimit:4;stroke-dasharray:none;stroke-opacity:1"
       id="path70"
       inkscape:connector-curvature="0" /><path
       d="m -0.96094,100.84229 c 0.33008,-0.16358 0.53418,-0.40333 0.61426,-0.7168 0.07813,-0.31445 0.02344,-0.66797 -0.17285,-1.0586 -0.19141,-0.3833 -0.44238,-0.63134 -0.75391,-0.74707 -0.3125,-0.11572 -0.625,-0.09521 -0.9375,0.06006 l 0.20899,0.417 c 0.24609,-0.07471 0.458,-0.08204 0.63281,-0.02051 0.17578,0.06152 0.32617,0.22314 0.45898,0.48388 0.11914,0.24024 0.1709,0.45801 0.1543,0.65039 -0.01269,0.19483 -0.1123,0.33594 -0.29687,0.42676 -0.20899,0.10352 -0.38184,0.10108 -0.51661,-0.0112 -0.13671,-0.11181 -0.34082,-0.32861 -0.60546,-0.65185 -0.26954,-0.32569 -0.51465,-0.55274 -0.73926,-0.68506 -0.22071,-0.12988 -0.50098,-0.11328 -0.8291,0.04883 -0.33008,0.1665 -0.52539,0.41601 -0.58497,0.75439 -0.06445,0.33643 -0.00488,0.68311 0.16797,1.03516 0.23243,0.46631 0.51953,0.75976 0.86524,0.88232 0.34277,0.12256 0.68945,0.0957 1.03906,-0.0776 l -0.20605,-0.42334 c -0.27735,0.10645 -0.52051,0.12403 -0.7334,0.0454 -0.21485,-0.0771 -0.40235,-0.27978 -0.56543,-0.60742 -0.12403,-0.25195 -0.17188,-0.48095 -0.1416,-0.69043 0.03613,-0.20703 0.14941,-0.36084 0.3457,-0.45752 0.21582,-0.10791 0.39062,-0.10937 0.5293,-0.0044 0.14062,0.10254 0.33789,0.31152 0.59179,0.62353 0.25684,0.3125 0.49121,0.54737 0.70801,0.70557 0.2168,0.16162 0.4707,0.16748 0.7666,0.0186 z"
       style="fill:#ffffff;fill-opacity:1;fill-rule:nonzero;stroke:#ffffff;stroke-width:0.22899;stroke-linecap:butt;stroke-linejoin:miter;stroke-miterlimit:4;stroke-dasharray:none;stroke-opacity:1"
       id="path72"
       inkscape:connector-curvature="0" /><path
       d="m -5.22656,97.94482 3.75293,-1.11035 -0.14063,-0.47314 -3.75097,1.11133 z"
       style="fill:#ffffff;fill-opacity:1;fill-rule:nonzero;stroke:#ffffff;stroke-width:0.22899;stroke-linecap:butt;stroke-linejoin:miter;stroke-miterlimit:4;stroke-dasharray:none;stroke-opacity:1"
       id="path74"
       inkscape:connector-curvature="0" /><path
       d="m -4.90625,93.25586 0.16309,1.57764 -1.11719,0.57666 0.05371,0.51806 3.7334,-1.89892 -0.05762,-0.54834 -4.04394,-1.08399 0.05078,0.52783 1.21777,0.33106 m 0.42773,0.11475 1.72168,0.45361 -1.58984,0.80664 z"
       style="fill:#ffffff;fill-opacity:1;fill-rule:nonzero;stroke:#ffffff;stroke-width:0.22899;stroke-linecap:butt;stroke-linejoin:miter;stroke-miterlimit:4;stroke-dasharray:none;stroke-opacity:1"
       id="path76"
       inkscape:connector-curvature="0" /><path
       d="m -6.10059,90.79883 3.86914,0.59521 0.08887,-0.5874 -2.86426,-2.46777 3.1709,0.48877 0.07422,-0.48877 -3.87012,-0.59473 -0.09179,0.59131 2.83008,2.45752 -3.12989,-0.48291 z"
       style="fill:#ffffff;fill-opacity:1;fill-rule:nonzero;stroke:#ffffff;stroke-width:0.22899;stroke-linecap:butt;stroke-linejoin:miter;stroke-miterlimit:4;stroke-dasharray:none;stroke-opacity:1"
       id="path78"
       inkscape:connector-curvature="0" /><path
       d="m -0.91504,85.92188 1.52051,-2.68458 -0.38281,-0.21533 -0.6377,1.12842 -3.02539,-1.71191 -0.24414,0.42968 3.02832,1.71192 -0.63672,1.12597 z"
       style="fill:#ffffff;fill-opacity:1;fill-rule:nonzero;stroke:#ffffff;stroke-width:0.22899;stroke-linecap:butt;stroke-linejoin:miter;stroke-miterlimit:4;stroke-dasharray:none;stroke-opacity:1"
       id="path80"
       inkscape:connector-curvature="0" /><path
       d="M 1.05273,82.6416 1.3877,82.27783 -0.62988,80.4292 c -0.17774,-0.16504 -0.25489,-0.36768 -0.23047,-0.60742 0.02832,-0.23926 0.13281,-0.45801 0.3164,-0.65576 0.18165,-0.19825 0.39063,-0.31983 0.63086,-0.36475 0.23926,-0.04443 0.44922,0.01562 0.63184,0.18359 l 2.00391,1.83741 0.33203,-0.36426 -1.96973,-1.80762 c -0.2832,-0.26025 -0.6123,-0.37451 -0.97851,-0.33643 -0.36817,0.03516 -0.69922,0.21387 -0.9961,0.5376 -0.29101,0.31983 -0.4414,0.66211 -0.45312,1.02979 -0.00977,0.36572 0.12402,0.67578 0.40039,0.9292 z"
       style="fill:#ffffff;fill-opacity:1;fill-rule:nonzero;stroke:#ffffff;stroke-width:0.22899;stroke-linecap:butt;stroke-linejoin:miter;stroke-miterlimit:4;stroke-dasharray:none;stroke-opacity:1"
       id="path82"
       inkscape:connector-curvature="0" /><path
       d="m 1.70703,76.50244 2.18945,3.24268 1.45997,-0.98584 C 5.72656,78.50781 5.94727,78.24658 6.01563,77.97314 6.08105,77.69971 6.02246,77.42188 5.83203,77.14063 5.68066,76.9126 5.51758,76.771 5.34766,76.71436 5.17676,76.65723 5.01465,76.65186 4.85645,76.70068 4.94629,76.5708 4.99512,76.44141 5.00879,76.31396 5.02148,76.18506 4.92773,75.95459 4.73145,75.62598 4.53906,75.29443 4.43066,75.09912 4.41016,75.04102 4.38574,74.98145 4.37305,74.93262 4.36816,74.89404 4.36523,74.85498 4.37012,74.81934 4.39355,74.78271 l -0.04589,-0.06396 -0.5127,0.34424 0.10449,0.22607 c 0.02442,0.04639 0.12989,0.21387 0.31934,0.50147 0.18457,0.28857 0.26074,0.50049 0.22266,0.63623 -0.03809,0.13623 -0.08399,0.23535 -0.14551,0.29931 -0.05567,0.06348 -0.13281,0.12549 -0.22559,0.18946 l -1.0498,0.70996 -0.94532,-1.39844 -0.4082,0.27539 m 2.35352,2.60401 -0.75489,-1.11963 1.0127,-0.68604 c 0.23633,-0.15869 0.44434,-0.23291 0.62109,-0.22217 0.17774,0.01075 0.33203,0.11231 0.46387,0.30713 0.12891,0.19434 0.16797,0.37696 0.10938,0.54541 -0.05957,0.1709 -0.20508,0.33399 -0.43653,0.49121 z"
       style="fill:#ffffff;fill-opacity:1;fill-rule:nonzero;stroke:#ffffff;stroke-width:0.22899;stroke-linecap:butt;stroke-linejoin:miter;stroke-miterlimit:4;stroke-dasharray:none;stroke-opacity:1"
       id="path84"
       inkscape:connector-curvature="0" /><path
       d="M 5.94336,73.93945 7.39355,77.57666 9.90234,76.57715 9.73926,76.17188 7.69043,76.9873 7.21973,75.8042 8.89063,75.13818 8.73242,74.73096 7.05762,75.39795 6.40332,73.75732 Z"
       style="fill:#ffffff;fill-opacity:1;fill-rule:nonzero;stroke:#ffffff;stroke-width:0.22899;stroke-linecap:butt;stroke-linejoin:miter;stroke-miterlimit:4;stroke-dasharray:none;stroke-opacity:1"
       id="path86"
       inkscape:connector-curvature="0" /><path
       d="m 11.51563,72.16455 c -0.5127,0.08594 -0.88575,0.33887 -1.12598,0.76123 -0.23633,0.42383 -0.3086,0.90869 -0.21973,1.45459 0.09766,0.58789 0.33496,1.05225 0.70996,1.38916 0.37598,0.33692 0.80957,0.46436 1.30469,0.38233 0.49707,-0.08301 0.86816,-0.27002 1.10449,-0.56006 0.23828,-0.292 0.34571,-0.60645 0.32032,-0.94532 l -0.46485,0.07666 c -0.01367,0.21241 -0.09765,0.417 -0.25976,0.61426 -0.16211,0.19776 -0.4209,0.32422 -0.77149,0.38379 -0.3623,0.05957 -0.6748,-0.05176 -0.94433,-0.33203 -0.26661,-0.28076 -0.4375,-0.62842 -0.50489,-1.04443 -0.07422,-0.44336 -0.0332,-0.82959 0.11328,-1.15821 0.14844,-0.33056 0.4209,-0.52636 0.81641,-0.59179 0.33301,-0.05567 0.65527,-0.0049 0.96484,0.15576 0.31055,0.15869 0.5,0.45849 0.57227,0.90234 l -1.16504,0.19336 0.07324,0.42969 1.59571,-0.26416 -0.3418,-2.06055 -0.2832,0.04688 -0.06446,0.5166 c -0.21679,-0.17188 -0.43554,-0.28467 -0.66015,-0.33936 -0.22364,-0.05566 -0.4795,-0.05859 -0.76953,-0.01074 z"
       style="fill:#ffffff;fill-opacity:1;fill-rule:nonzero;stroke:#ffffff;stroke-width:0.22899;stroke-linecap:butt;stroke-linejoin:miter;stroke-miterlimit:4;stroke-dasharray:none;stroke-opacity:1"
       id="path88"
       inkscape:connector-curvature="0" /><path
       d="m 15.29883,71.87158 -0.23047,3.90674 1.75391,0.104 c 0.45117,0.02784 0.7832,-0.04541 1.0039,-0.2207 0.22071,-0.17529 0.3418,-0.43359 0.36328,-0.77197 0.01563,-0.27344 -0.02734,-0.48584 -0.1289,-0.63428 -0.09961,-0.14892 -0.22657,-0.25195 -0.38086,-0.30908 0.15039,-0.04834 0.26562,-0.12256 0.35547,-0.21533 0.08789,-0.09571 0.15429,-0.33399 0.20117,-0.71289 0.04883,-0.38086 0.07812,-0.59961 0.09961,-0.66162 0.01562,-0.05957 0.03711,-0.10743 0.05469,-0.14014 0.02343,-0.0332 0.04882,-0.05908 0.08593,-0.07373 l 0.0059,-0.08008 -0.61523,-0.03662 -0.05469,0.24267 c -0.0098,0.05176 -0.02734,0.24659 -0.05273,0.5918 -0.02735,0.34278 -0.09571,0.55664 -0.21094,0.64111 -0.11133,0.08399 -0.20899,0.13428 -0.29492,0.14893 -0.08594,0.01514 -0.1836,0.02002 -0.29688,0.01172 L 15.6934,73.5874 15.79496,71.90039 15.29887,71.87158 m 0.28515,3.50049 0.08008,-1.34814 1.22266,0.07177 c 0.28516,0.01758 0.49414,0.08252 0.62891,0.20118 0.13476,0.11621 0.19531,0.29248 0.18164,0.52539 -0.01563,0.23339 -0.09571,0.39941 -0.2461,0.5 -0.15039,0.09912 -0.36523,0.14111 -0.64453,0.12304 z"
       style="fill:#ffffff;fill-opacity:1;fill-rule:nonzero;stroke:#ffffff;stroke-width:0.22899;stroke-linecap:butt;stroke-linejoin:miter;stroke-miterlimit:4;stroke-dasharray:none;stroke-opacity:1"
       id="path90"
       inkscape:connector-curvature="0" /><path
       d="m 22.04883,74.13086 -1.52539,-0.43164 -0.12305,-1.25293 -0.50195,-0.14111 0.3789,4.17382 0.53125,0.15039 2.50586,-3.35888 -0.50781,-0.14405 -0.75781,1.0044 m -0.26758,0.35742 -1.05859,1.4292 -0.16211,-1.77539 z"
       style="fill:#ffffff;fill-opacity:1;fill-rule:nonzero;stroke:#ffffff;stroke-width:0.22899;stroke-linecap:butt;stroke-linejoin:miter;stroke-miterlimit:4;stroke-dasharray:none;stroke-opacity:1"
       id="path92"
       inkscape:connector-curvature="0" /><path
       d="m 23.33008,76.30762 c -0.17188,0.32324 -0.20313,0.6372 -0.08008,0.93896 0.11719,0.30274 0.36914,0.55518 0.75781,0.75977 0.37696,0.19922 0.72657,0.25586 1.04492,0.16699 0.32032,-0.08643 0.56641,-0.28662 0.72852,-0.59424 l -0.41211,-0.21777 c -0.1582,0.2041 -0.32422,0.33398 -0.50391,0.38574 -0.17578,0.05127 -0.39648,0.0093 -0.65234,-0.12598 -0.24023,-0.12548 -0.41016,-0.27246 -0.50586,-0.43896 -0.10156,-0.16553 -0.10351,-0.33887 -0.0098,-0.51807 0.10937,-0.20801 0.2539,-0.3042 0.42968,-0.29394 0.17383,0.0098 0.4668,0.07031 0.87305,0.17773 0.40625,0.10742 0.74023,0.1499 0.99609,0.12549 0.25977,-0.02393 0.47657,-0.19971 0.64454,-0.52441 0.17382,-0.32422 0.1875,-0.64258 0.04101,-0.95313 -0.15039,-0.31006 -0.39648,-0.5581 -0.74219,-0.74072 -0.46093,-0.24463 -0.86718,-0.31543 -1.21679,-0.21533 -0.34961,0.10058 -0.61719,0.32519 -0.79883,0.67138 l 0.41601,0.22022 c 0.15821,-0.24707 0.34961,-0.40283 0.57032,-0.46387 0.21679,-0.06152 0.48828,-0.0063 0.80859,0.16455 0.25,0.1333 0.41992,0.29151 0.51758,0.47852 0.09375,0.18896 0.08984,0.38037 -0.01367,0.57177 -0.11133,0.21387 -0.25391,0.31885 -0.42774,0.31446 -0.17578,-0.0024 -0.45508,-0.05664 -0.84375,-0.16114 -0.38867,-0.10498 -0.71484,-0.15918 -0.98633,-0.16308 -0.26757,-0.0049 -0.47851,0.13965 -0.63476,0.43506 z"
       style="fill:#ffffff;fill-opacity:1;fill-rule:nonzero;stroke:#ffffff;stroke-width:0.22899;stroke-linecap:butt;stroke-linejoin:miter;stroke-miterlimit:4;stroke-dasharray:none;stroke-opacity:1"
       id="path94"
       inkscape:connector-curvature="0" /><path
       d="m 26.74805,78.25781 c -0.23242,0.28125 -0.32422,0.58252 -0.27149,0.90283 0.05469,0.32032 0.24805,0.62061 0.58399,0.90088 0.33008,0.27246 0.6582,0.40137 0.98828,0.38135 0.33203,-0.01953 0.61133,-0.1626 0.83398,-0.43164 l -0.35547,-0.29834 c -0.19531,0.16846 -0.38671,0.25879 -0.57421,0.27344 -0.1836,0.01367 -0.38868,-0.07178 -0.61329,-0.25977 -0.20507,-0.17187 -0.34179,-0.34912 -0.40429,-0.5332 -0.0625,-0.18359 -0.02539,-0.35352 0.10351,-0.50977 0.14844,-0.17871 0.3086,-0.24511 0.47657,-0.19824 0.17187,0.04688 0.44531,0.16504 0.81835,0.35498 0.37696,0.19043 0.69141,0.3003 0.94922,0.33203 0.25586,0.02881 0.50586,-0.09619 0.74024,-0.37988 0.23633,-0.28125 0.31445,-0.58935 0.23633,-0.92529 -0.07813,-0.33203 -0.26954,-0.62793 -0.57422,-0.87793 -0.39649,-0.33545 -0.7793,-0.48926 -1.14063,-0.46387 -0.36523,0.02588 -0.67383,0.18945 -0.92578,0.49121 l 0.36133,0.30274 c 0.20898,-0.21045 0.42773,-0.32178 0.6543,-0.33594 0.22656,-0.01465 0.48046,0.09521 0.75976,0.32959 0.2168,0.18066 0.35352,0.37256 0.40625,0.57666 0.05469,0.20215 0.0078,0.38916 -0.13086,0.55664 -0.15429,0.18408 -0.3164,0.25684 -0.48437,0.21728 -0.16992,-0.03808 -0.4336,-0.15039 -0.79492,-0.33398 -0.35547,-0.18311 -0.66407,-0.3042 -0.92774,-0.36377 -0.26172,-0.06055 -0.49805,0.03613 -0.71484,0.29199 z"
       style="fill:#ffffff;fill-opacity:1;fill-rule:nonzero;stroke:#ffffff;stroke-width:0.22899;stroke-linecap:butt;stroke-linejoin:miter;stroke-miterlimit:4;stroke-dasharray:none;stroke-opacity:1"
       id="path96"
       inkscape:connector-curvature="0" /><path
       d="m 34.21875,82.33936 c -0.2832,-0.48389 -0.65625,-0.75245 -1.12109,-0.80909 -0.4668,-0.05761 -0.94141,0.0586 -1.4336,0.34864 -0.51172,0.30078 -0.86133,0.68847 -1.04101,1.16015 -0.17774,0.47119 -0.13867,0.92237 0.11328,1.35352 0.25781,0.43799 0.5664,0.71484 0.92187,0.83154 0.35743,0.11914 0.68946,0.10449 0.99414,-0.04199 L 32.41406,84.77637 C 32.21289,84.84521 31.99023,84.8374 31.75,84.75586 31.50781,84.6748 31.29297,84.47949 31.11133,84.1709 c -0.1836,-0.31348 -0.19141,-0.64697 -0.02539,-0.99707 0.16211,-0.35156 0.42969,-0.63428 0.79297,-0.84863 0.38476,-0.22706 0.75976,-0.33008 1.11914,-0.31006 0.36328,0.02002 0.64258,0.20166 0.8457,0.54834 0.1543,0.25976 0.21094,0.54394 0.16992,0.84912 -0.04101,0.30664 -0.20117,0.54004 -0.47851,0.70263 l 0.23828,0.40625 c 0.36719,-0.2163 0.59179,-0.53613 0.66992,-0.96289 0.07617,-0.42627 0.0039,-0.83252 -0.22461,-1.21923 z"
       style="fill:#ffffff;fill-opacity:1;fill-rule:nonzero;stroke:#ffffff;stroke-width:0.22899;stroke-linecap:butt;stroke-linejoin:miter;stroke-miterlimit:4;stroke-dasharray:none;stroke-opacity:1"
       id="path98"
       inkscape:connector-curvature="0" /><path
       d="m 35.72461,85.61133 -3.76367,1.07763 0.76562,2.66944 0.41797,-0.12061 -0.6289,-2.19433 1.18359,-0.33789 0.55273,1.92968 0.41993,-0.11962 -0.55274,-1.93067 1.32031,-0.37891 0.62891,2.19434 0.41992,-0.12207 z"
       style="fill:#ffffff;fill-opacity:1;fill-rule:nonzero;stroke:#ffffff;stroke-width:0.22899;stroke-linecap:butt;stroke-linejoin:miter;stroke-miterlimit:4;stroke-dasharray:none;stroke-opacity:1"
       id="path100"
       inkscape:connector-curvature="0" /><path
       d="m 36.79688,90.19336 -3.91602,0.09473 0.01758,0.59375 3.25,1.92578 -3.20313,0.07812 0.01172,0.49219 3.91211,-0.09522 -0.01172,-0.59716 -3.2207,-1.92188 3.16797,-0.07812 -0.0078,-0.49219 z"
       style="fill:#ffffff;fill-opacity:1;fill-rule:nonzero;stroke:#ffffff;stroke-width:0.22899;stroke-linecap:butt;stroke-linejoin:miter;stroke-miterlimit:4;stroke-dasharray:none;stroke-opacity:1"
       id="path102"
       inkscape:connector-curvature="0" /><path
       d="m 32.89063,94.05859 -0.66797,3.00928 0.42968,0.09473 0.2793,-1.26416 3.39453,0.75146 0.10742,-0.48291 -3.39648,-0.75 0.28125,-1.26367 z"
       style="fill:#ffffff;fill-opacity:1;fill-rule:nonzero;stroke:#ffffff;stroke-width:0.22899;stroke-linecap:butt;stroke-linejoin:miter;stroke-miterlimit:4;stroke-dasharray:none;stroke-opacity:1"
       id="path104"
       inkscape:connector-curvature="0" /><path
       d="m 35.43555,99.56836 -3.51172,-1.72607 -1.2207,2.48974 0.38671,0.19238 1.00782,-2.04638 1.10547,0.54345 -0.88477,1.80127 0.38867,0.1919 0.88672,-1.80127 1.23438,0.60596 -1.00586,2.04638 0.38867,0.19239 z"
       style="fill:#ffffff;fill-opacity:1;fill-rule:nonzero;stroke:#ffffff;stroke-width:0.22899;stroke-linecap:butt;stroke-linejoin:miter;stroke-miterlimit:4;stroke-dasharray:none;stroke-opacity:1"
       id="path106"
       inkscape:connector-curvature="0" /><path
       d="m 33.11914,103.73047 -2.99609,-2.51904 -1.13282,1.34716 c -0.28906,0.34278 -0.42578,0.65625 -0.41796,0.93702 0.0078,0.28125 0.14257,0.53271 0.40039,0.75048 0.21484,0.17676 0.4082,0.26905 0.58593,0.27784 0.17969,0.008 0.33985,-0.0322 0.47657,-0.12256 -0.05078,0.14941 -0.06446,0.28759 -0.03711,0.41455 0.02148,0.12646 0.17383,0.32178 0.44726,0.58642 0.27735,0.26514 0.43555,0.42188 0.47461,0.47266 0.03906,0.0523 0.06641,0.0947 0.07813,0.13037 0.01562,0.0357 0.01953,0.0742 0.0098,0.11426 l 0.06055,0.0498 0.39648,-0.47216 -0.16211,-0.18653 c -0.0371,-0.0395 -0.18359,-0.17041 -0.4414,-0.39746 -0.26172,-0.22656 -0.39258,-0.40918 -0.39258,-0.55029 0,-0.14111 0.01758,-0.24903 0.05859,-0.32617 0.03711,-0.0781 0.0918,-0.15967 0.16407,-0.24561 l 0.81836,-0.97119 1.29296,1.08789 0.31641,-0.37744 m -2.97851,-1.86084 1.0332,0.87109 -0.78516,0.93653 c -0.18554,0.21582 -0.36328,0.34423 -0.53711,0.3833 -0.17383,0.0395 -0.34961,-0.0156 -0.52929,-0.16846 -0.17774,-0.1499 -0.26368,-0.31445 -0.25391,-0.49463 0.0098,-0.18017 0.10547,-0.37744 0.28516,-0.59082 z"
       style="fill:#ffffff;fill-opacity:1;fill-rule:nonzero;stroke:#ffffff;stroke-width:0.22899;stroke-linecap:butt;stroke-linejoin:miter;stroke-miterlimit:4;stroke-dasharray:none;stroke-opacity:1"
       id="path108"
       inkscape:connector-curvature="0" /><path
       d="m 27.44336,107.86475 c 0,-0.38916 -0.32031,-0.70557 -0.70703,-0.70557 -0.39453,0 -0.70508,0.31641 -0.70508,0.70557 0,0.39062 0.31055,0.708 0.70508,0.708 0.38672,0 0.70703,-0.31738 0.70703,-0.708 z"
       style="fill:#ffffff;fill-opacity:1;fill-rule:nonzero;stroke:none"
       id="path110"
       inkscape:connector-curvature="0" /><path
       d="m 4.19727,107.86475 c 0,-0.38916 -0.31641,-0.70557 -0.70801,-0.70557 -0.3877,0 -0.70117,0.31641 -0.70117,0.70557 0,0.39062 0.31347,0.708 0.70117,0.708 0.3916,0 0.70801,-0.31738 0.70801,-0.708 z"
       style="fill:#ffffff;fill-opacity:1;fill-rule:nonzero;stroke:none"
       id="path112"
       inkscape:connector-curvature="0" /><path
       d="m 1.33984,92.22559 c 0,-7.27539 6.22852,-13.17188 13.91211,-13.17188 7.6836,0 13.91211,5.89649 13.91211,13.17188 0,7.2749 -6.22851,13.17236 -13.91211,13.17236 -7.68359,0 -13.91211,-5.89746 -13.91211,-13.17236 z"
       style="fill:none;stroke:#6a791b;stroke-width:1.39348996;stroke-linecap:butt;stroke-linejoin:miter;stroke-miterlimit:4;stroke-dasharray:none;stroke-opacity:1"
       id="path114"
       inkscape:connector-curvature="0" /><path
       d="m 3.00879,86.62451 c 0,0 -0.11035,15.06738 9.40918,16.35108 0,0 -6.94141,-2.24268 -6.82324,-16.58741 0,0 0.94922,12.64453 9.41308,14.02344 0,0 -6.82715,-1.7959 -6.70898,-16.96191 0,0 0.82422,13.16748 9.05273,14.22509 0,0 -6.34863,-2.11572 -6.46582,-15.87109 0,0 0.92774,12.08203 9.34082,13.38818 0,0 -6.16406,-2.21923 -6.63672,-13.97656 0,0 1.69532,10.39112 9.07813,11.36865 0,0 -5.66797,-2.19824 -6.49024,-12.07373 0,0 1.78907,8.60889 8.6543,9.47754 0,0 -4.06836,-1.24756 -6.18555,-9.5957 0,0 2.62305,6.34863 8.01368,6.99609 0,0 -4.13477,-1.70459 -5.66211,-7.70117 0,0 -11.64063,-4.70215 -17.98926,6.9375 z"
       style="fill:#6a791b;fill-opacity:1;fill-rule:nonzero;stroke:none"
       id="path116"
       inkscape:connector-curvature="0" /><path
       d="m -73.03809,-229.0293 v 0.3916 c 0.55518,0.0596 0.9712,0.25684 1.24854,0.59375 0.27783,0.33887 0.74267,1.27735 1.39795,2.82032 l 4.35596,10.26465 h 0.44677 l 5.17871,-11.83985 c 0.33838,-0.78613 0.60791,-1.27148 0.81006,-1.45703 0.20166,-0.1875 0.54053,-0.31445 1.01807,-0.38184 v -0.3916 h -5.29688 v 0.3916 c 0.60987,0.0537 1.00391,0.11817 1.18116,0.19629 0.17578,0.0771 0.26562,0.26758 0.26562,0.57129 0,0.0996 -0.03467,0.2793 -0.10205,0.53418 -0.06934,0.25489 -0.16357,0.52442 -0.28564,0.8086 l -0.83448,2.00293 h -5.48681 c -0.56299,-1.36231 -0.89746,-2.19336 -1.00147,-2.49317 -0.10644,-0.2998 -0.15918,-0.53613 -0.15918,-0.71191 0,-0.34864 0.14258,-0.5918 0.42822,-0.72656 0.17774,-0.0811 0.51026,-0.14063 1,-0.18165 v -0.3916 h -4.16455 m 9.02881,5.35352 -2.3999,5.76465 -2.38086,-5.76465 z"
       style="fill:#231f20;fill-opacity:1;fill-rule:nonzero;stroke:none"
       id="path118"
       inkscape:connector-curvature="0" /><path
       d="m -51.55127,-224.88281 c 0.34717,-0.93457 0.75732,-1.67969 1.22656,-2.23633 0.81592,-0.96973 1.83203,-1.45313 3.04395,-1.45313 0.65722,0 1.22461,0.21192 1.70361,0.63477 0.47754,0.42383 0.71826,1.01562 0.71826,1.77246 0,0.68359 -0.24463,1.27734 -0.73437,1.78418 -0.32227,0.32031 -0.99561,0.80176 -2.02197,1.44434 l -1.78516,1.11816 c -0.53662,0.34082 -0.96338,0.68555 -1.27734,1.03418 -0.58155,0.66113 -0.87354,1.39355 -0.87354,2.19141 0,1.05859 0.35107,1.94043 1.05713,2.64453 0.7041,0.70117 1.63623,1.05469 2.79932,1.05469 0.47949,0 1.05468,-0.11231 1.72802,-0.33497 0.67334,-0.22168 1.05909,-0.33398 1.15528,-0.33398 0.25879,0 0.43847,0.0586 0.53857,0.17285 0.09766,0.11817 0.17529,0.28223 0.23047,0.4961 h 0.3916 l 0.45703,-4.43946 h -0.48974 c -0.34278,1.33594 -0.89161,2.26856 -1.64844,2.79688 -0.75684,0.52832 -1.50586,0.79394 -2.24463,0.79394 -0.5752,0 -1.07715,-0.16992 -1.50537,-0.50781 -0.42676,-0.33887 -0.64111,-0.80859 -0.64111,-1.4082 0,-0.54102 0.16357,-1.00196 0.48974,-1.38379 0.32666,-0.38965 0.83692,-0.7959 1.52637,-1.21973 l 1.84228,-1.13867 c 1.15284,-0.70996 1.96485,-1.36133 2.43409,-1.95215 0.46142,-0.59863 0.69384,-1.30664 0.69384,-2.12207 0,-1.0957 -0.41015,-2.01172 -1.22802,-2.74707 -0.81836,-0.73437 -1.86524,-1.10156 -3.13819,-1.10156 -0.64062,0 -1.31006,0.12304 -2.00586,0.36719 -0.69775,0.24511 -1.0957,0.36718 -1.19775,0.36718 -0.24268,0 -0.40576,-0.0772 -0.48926,-0.23437 -0.08594,-0.15528 -0.14111,-0.32227 -0.16748,-0.5 h -0.45703 l -0.62012,4.44043 z"
       style="fill:#231f20;fill-opacity:1;fill-rule:nonzero;stroke:none"
       id="path120"
       inkscape:connector-curvature="0" /><path
       d="m -35.75244,-228.6377 c 0.83447,0.0596 1.37305,0.18555 1.62207,0.37793 0.24463,0.18946 0.36914,0.68555 0.36914,1.4834 v 9.33594 c 0,0.76172 -0.12451,1.25098 -0.36914,1.47168 -0.24902,0.2207 -0.7876,0.34863 -1.62207,0.38965 v 0.3916 h 6.10449 v -0.3916 c -0.83447,-0.041 -1.37305,-0.16895 -1.62207,-0.38965 -0.24463,-0.2207 -0.36914,-0.70996 -0.36914,-1.47168 v -9.33594 c 0,-0.79785 0.12451,-1.29394 0.36914,-1.4834 0.24902,-0.19238 0.7876,-0.31836 1.62207,-0.37793 v -0.3916 h -6.10449 z"
       style="fill:#231f20;fill-opacity:1;fill-rule:nonzero;stroke:none"
       id="path122"
       inkscape:connector-curvature="0" /><path
       d="m -23.70215,-229.0293 v 0.3916 c 0.55469,0.0596 0.97119,0.25684 1.24854,0.59375 0.27734,0.33887 0.74267,1.27735 1.39795,2.82032 l 4.35595,10.26465 h 0.44678 l 5.17871,-11.83985 c 0.33838,-0.78613 0.60791,-1.27148 0.80957,-1.45703 0.20215,-0.1875 0.54102,-0.31445 1.01856,-0.38184 v -0.3916 h -5.29688 v 0.3916 c 0.60986,0.0537 1.00391,0.11817 1.18115,0.19629 0.17578,0.0771 0.26514,0.26758 0.26514,0.57129 0,0.0996 -0.03467,0.2793 -0.10156,0.53418 -0.06983,0.25489 -0.16358,0.52442 -0.28565,0.8086 l -0.83496,2.00293 h -5.48633 c -0.56298,-1.36231 -0.89795,-2.19336 -1.00195,-2.49317 -0.10596,-0.2998 -0.15918,-0.53613 -0.15918,-0.71191 0,-0.34864 0.14307,-0.5918 0.42871,-0.72656 0.17725,-0.0811 0.51026,-0.14063 0.99951,-0.18165 v -0.3916 h -4.16406 m 9.02832,5.35352 -2.39941,5.76465 -2.38086,-5.76465 z"
       style="fill:#231f20;fill-opacity:1;fill-rule:nonzero;stroke:none"
       id="path124"
       inkscape:connector-curvature="0" /><path
       d="m -3.42285,-228.6377 c 0.86084,0.0879 1.41357,0.28418 1.65674,0.58594 0.24463,0.30371 0.36718,1.00586 0.36718,2.10742 v 9.21192 l -0.28564,0.33691 c -0.3042,0.36133 -0.56348,0.58399 -0.77734,0.66699 -0.21436,0.0859 -0.53467,0.13477 -0.96094,0.14942 v 0.3916 h 3.55224 l 8.06934,-10.03418 v 6.96777 c 0,1.14649 -0.16943,1.89161 -0.50781,2.23828 -0.22266,0.22266 -0.71826,0.36915 -1.4834,0.43653 v 0.3916 h 4.89697 v -0.3916 c -0.7959,-0.082 -1.32861,-0.27539 -1.59375,-0.58399 -0.26513,-0.30566 -0.39795,-1.00781 -0.39795,-2.10546 v -11.02149 H 8.75781 l -9.24267,11.49121 v -8.14355 c 0,-1.14453 0.16699,-1.88965 0.5,-2.23633 0.21826,-0.22363 0.70361,-0.37695 1.45849,-0.45899 v -0.3916 h -4.89648 z"
       style="fill:#231f20;fill-opacity:1;fill-rule:nonzero;stroke:none"
       id="path126"
       inkscape:connector-curvature="0" /><path
       d="m 27.64941,-214.89355 h 12.49512 l 0.02051,-4.21094 h -0.604 c -0.19581,1.50097 -0.75293,2.51562 -1.67481,3.0459 -0.52051,0.29199 -1.29394,0.45312 -2.32422,0.47949 v -11.00977 c 0,-0.76953 0.13281,-1.27929 0.39795,-1.53222 0.26514,-0.25098 0.81836,-0.37793 1.65869,-0.37793 v -0.53028 h -7.44336 v 0.53028 c 0.82666,0 1.37549,0.1289 1.64893,0.38379 0.27148,0.25488 0.40771,0.76367 0.40771,1.52636 v 11.00977 c -1.00976,-0.0264 -1.78515,-0.1875 -2.32373,-0.47949 -0.9873,-0.54297 -1.54638,-1.5586 -1.67529,-3.0459 h -0.604 z"
       style="fill:#231f20;fill-opacity:1;fill-rule:nonzero;stroke:none"
       id="path128"
       inkscape:connector-curvature="0" /><path
       d="m 53.67627,-214.89355 v -0.52247 c -0.80566,-0.0264 -1.34668,-0.15332 -1.61816,-0.37988 -0.271,-0.22363 -0.40577,-0.74023 -0.40577,-1.5459 v -7.01465 c 0,-1.06543 0.12452,-1.88769 0.37549,-2.46679 0.45508,-1.08008 1.32422,-1.61817 2.60938,-1.61817 1.59765,0 2.67724,0.59766 3.24023,1.79297 0.31006,0.65723 0.46729,1.5752 0.46729,2.75879 v 6.41699 c 0,0.74707 -0.13672,1.26075 -0.41211,1.54297 -0.27539,0.28125 -0.81201,0.45215 -1.61182,0.51367 v 0.52247 h 4.57031 v -0.52247 c -0.66308,-0.1289 -1.09961,-0.28808 -1.31201,-0.47363 -0.21435,-0.1875 -0.32031,-0.61816 -0.32031,-1.28906 v -6.7002 c 0,-1.77929 -0.42871,-3.15234 -1.2832,-4.12207 -0.85498,-0.96875 -2.19971,-1.45312 -4.03174,-1.45312 -2.39746,0 -4.03614,0.71875 -4.91944,2.15722 -0.46728,0.7627 -0.70214,1.7461 -0.70214,2.95411 v 7.00097 c 0,0.79102 -0.10401,1.29102 -0.31397,1.49512 -0.21045,0.2041 -0.68164,0.34863 -1.41601,0.43066 v 0.52247 z"
       style="fill:#231f20;fill-opacity:1;fill-rule:nonzero;stroke:none"
       id="path130"
       inkscape:connector-curvature="0" /><path
       d="m 66.90381,-228.50684 c 0.7041,0.0342 1.18555,0.167 1.44287,0.40235 0.25684,0.23242 0.38525,0.74023 0.38525,1.52344 v 9.23925 c 0,0.81153 -0.15283,1.3418 -0.45703,1.58692 -0.20361,0.16504 -0.66064,0.27734 -1.37109,0.33886 v 0.52247 h 6.73144 c 1.39551,0 2.52588,-0.14747 3.38868,-0.43848 1.67724,-0.59375 2.51416,-1.65918 2.51416,-3.19922 0,-1.13672 -0.43897,-2.03223 -1.31397,-2.68555 -0.67139,-0.49121 -1.37939,-0.80371 -2.12842,-0.94043 l 4.4419,-5.93359 c 0.11816,-0.16113 0.24267,-0.26953 0.37549,-0.32031 0.13037,-0.0508 0.29394,-0.0811 0.48974,-0.0957 v -0.52246 h -4.36035 l -4.88672,6.5293 h -0.02832 v -4.08105 c 0,-0.74024 0.12207,-1.24219 0.36524,-1.49903 0.24462,-0.25781 0.73242,-0.40039 1.46289,-0.42676 v -0.52246 h -7.05176 v 0.52246 m 8.15967,7.26758 c 0.58935,0.36328 0.8833,1.2041 0.8833,2.51953 0,0.8086 -0.11231,1.44727 -0.33643,1.91602 -0.38965,0.79394 -1.0957,1.19141 -2.12402,1.19141 -0.55908,0 -0.92627,-0.0693 -1.09766,-0.20997 -0.17578,-0.13867 -0.26123,-0.36718 -0.26123,-0.68554 v -5.30664 c 1.3667,0.0205 2.34619,0.21191 2.93604,0.57519 z"
       style="fill:#231f20;fill-opacity:1;fill-rule:nonzero;stroke:none"
       id="path132"
       inkscape:connector-curvature="0" /><path
       d="m 87.24854,-228.50684 c 0.58935,0.0205 1.00781,0.10157 1.25488,0.24512 0.3833,0.21777 0.57324,0.62793 0.57324,1.22754 v 10.13477 c 0,0.60839 -0.18799,1.0166 -0.56348,1.22851 -0.22607,0.12793 -0.64843,0.21387 -1.26464,0.25488 v 0.52247 h 11.85009 v -4.21094 h -0.53857 c -0.25928,1.29101 -0.6958,2.19726 -1.30762,2.71484 -0.6123,0.51856 -1.74463,0.77735 -3.39306,0.77735 -0.61231,0 -1.00196,-0.0713 -1.16944,-0.20997 -0.16699,-0.13867 -0.25098,-0.39941 -0.25098,-0.7832 v -4.84961 c 1.13672,-0.0205 1.90577,0.21387 2.30567,0.69922 0.40185,0.49023 0.7041,1.26758 0.91016,2.33691 h 0.53857 v -6.98632 h -0.53857 c -0.14502,1.12402 -0.43458,1.94433 -0.86719,2.458 -0.43653,0.51661 -1.21826,0.77344 -2.34864,0.77344 v -4.86426 c 0,-0.64648 0.18799,-1.05468 0.56348,-1.23046 0.375,-0.1709 0.94873,-0.25293 1.72168,-0.23829 v -0.52246 h -7.47558 z"
       style="fill:#231f20;fill-opacity:1;fill-rule:nonzero;stroke:none"
       id="path134"
       inkscape:connector-curvature="0" /><path
       d="m 107.6377,-216.83203 c 1.3916,1.4668 3.1665,2.19922 5.32519,2.19922 0.86524,0 1.72607,-0.16309 2.58545,-0.48926 0.85889,-0.32617 1.39355,-0.49023 1.60352,-0.49023 0.2246,0 0.40625,0.0801 0.54296,0.24316 0.13672,0.16113 0.24659,0.40625 0.33643,0.73633 h 0.58789 v -4.89649 h -0.52246 c -0.50391,1.05469 -1.01807,1.8877 -1.54248,2.49512 -0.97949,1.12207 -2.08936,1.68359 -3.32813,1.68359 -1.34668,0 -2.33007,-0.58593 -2.95019,-1.75293 -0.61817,-1.17089 -0.92822,-2.81543 -0.92822,-4.93359 0,-1.74023 0.28759,-3.29297 0.86474,-4.6543 0.57569,-1.3623 1.6875,-2.04394 3.33838,-2.04394 0.8916,0 1.49121,0.18555 1.79932,0.56152 0.17578,0.20996 0.26562,0.53028 0.26562,0.95801 v 2.20215 c 0,0.64062 -0.19629,1.0625 -0.58398,1.26269 -0.25293,0.12207 -0.76709,0.19239 -1.53809,0.20606 v 0.52246 h 7.14942 v -0.52246 c -0.71241,-0.0264 -1.1836,-0.17285 -1.41602,-0.43848 -0.23047,-0.26367 -0.34717,-0.75879 -0.34717,-1.4873 v -2.66309 c -0.46484,-0.29394 -1.21386,-0.58496 -2.25244,-0.87891 -1.03662,-0.29394 -2.19531,-0.4414 -3.47851,-0.4414 -2.32813,0 -4.18702,0.7334 -5.57862,2.20019 -1.29541,1.36914 -1.94433,3.08887 -1.94433,5.15625 0,2.08496 0.67138,3.8418 2.01172,5.26563 z"
       style="fill:#231f20;fill-opacity:1;fill-rule:nonzero;stroke:none"
       id="path136"
       inkscape:connector-curvature="0" /><path
       d="m 126.67627,-228.50684 c 0.7041,0.0342 1.18555,0.167 1.44238,0.40235 0.25733,0.23242 0.38574,0.74023 0.38574,1.52344 v 9.23925 c 0,0.81153 -0.15283,1.3418 -0.45703,1.58692 -0.20215,0.16504 -0.65918,0.27734 -1.37109,0.33886 v 0.52247 h 6.73096 c 1.39599,0 2.52636,-0.14747 3.39111,-0.43848 1.67334,-0.59375 2.51172,-1.65918 2.51172,-3.19922 0,-1.13672 -0.43848,-2.03223 -1.31592,-2.68555 -0.66943,-0.49121 -1.37939,-0.80371 -2.12598,-0.94043 l 4.4419,-5.93359 c 0.11816,-0.16113 0.24267,-0.26953 0.37549,-0.32031 0.13232,-0.0508 0.2959,-0.0811 0.48974,-0.0957 v -0.52246 h -4.36035 l -4.88867,6.5293 h -0.0269 v -4.08105 c 0,-0.74024 0.12256,-1.24219 0.36524,-1.49903 0.24512,-0.25781 0.73047,-0.40039 1.46289,-0.42676 v -0.52246 h -7.05127 v 0.52246 m 8.15918,7.26758 c 0.58789,0.36328 0.88379,1.2041 0.88379,2.51953 0,0.8086 -0.11231,1.44727 -0.33692,1.91602 -0.38769,0.79394 -1.09765,1.19141 -2.12402,1.19141 -0.55908,0 -0.92432,-0.0693 -1.09961,-0.20997 -0.17139,-0.13867 -0.25928,-0.36718 -0.25928,-0.68554 v -5.30664 c 1.36914,0.0205 2.34668,0.21191 2.93604,0.57519 z"
       style="fill:#231f20;fill-opacity:1;fill-rule:nonzero;stroke:none"
       id="path138"
       inkscape:connector-curvature="0" /><path
       d="m 147.05322,-228.50684 c 0.50391,0.0342 0.91016,0.2627 1.21826,0.6875 0.19776,0.26563 0.4795,0.8545 0.84864,1.76465 l 4.63574,11.45508 h 0.6001 l 4.65771,-10.99414 c 0.52246,-1.23828 0.91455,-2.03613 1.17139,-2.39453 0.25928,-0.35938 0.62646,-0.5332 1.10205,-0.51856 v -0.52246 h -6.75781 v 0.52246 c 0.66504,0.0264 1.10351,0.084 1.31396,0.17383 0.21192,0.0869 0.31641,0.31153 0.31641,0.6709 0,0.16309 -0.0552,0.41016 -0.16358,0.74219 -0.0674,0.20019 -0.16113,0.4414 -0.27734,0.72461 l -0.53467,1.27929 h -4.66845 c -0.30567,-0.83398 -0.50196,-1.37695 -0.58936,-1.62988 -0.18359,-0.54101 -0.27539,-0.93457 -0.27539,-1.17969 0,-0.30175 0.19971,-0.52246 0.60156,-0.65722 0.24072,-0.0771 0.6001,-0.11817 1.07764,-0.12403 v -0.52246 h -4.27686 v 0.52246 m 7.81885,4.40723 -2.02637,4.86426 h -0.104 l -1.89746,-4.86426 z"
       style="fill:#231f20;fill-opacity:1;fill-rule:nonzero;stroke:none"
       id="path140"
       inkscape:connector-curvature="0" /><path
       d="m 167.72461,-224.16504 h 0.60352 c 0.33007,-1.55078 0.86718,-2.67871 1.60546,-3.38281 0.73926,-0.7041 1.58399,-1.05664 2.53809,-1.05664 0.92871,0 1.58789,0.24219 1.97949,0.72851 0.38965,0.48535 0.58594,0.99512 0.58594,1.53418 0,0.62403 -0.2041,1.13184 -0.61231,1.52637 -0.26953,0.25879 -0.8164,0.5957 -1.64062,1.00781 l -1.32617,0.67285 c -1.31836,0.66504 -2.2461,1.32422 -2.78906,1.97559 -0.54297,0.65234 -0.81446,1.45605 -0.81446,2.41504 0,1.01855 0.35938,1.96973 1.07715,2.85254 0.71875,0.88183 1.81836,1.32422 3.30176,1.32422 0.75293,0 1.4834,-0.11621 2.18945,-0.35059 0.7041,-0.23437 1.10547,-0.35156 1.20606,-0.35156 0.22656,0 0.38281,0.0635 0.4707,0.19433 0.0859,0.12598 0.15723,0.29786 0.20996,0.50782 h 0.62109 v -4.53711 h -0.58789 c -0.27148,1.05859 -0.75097,1.9707 -1.43652,2.73535 -0.68555,0.76562 -1.51758,1.14941 -2.49707,1.14941 -0.69043,0 -1.23438,-0.19238 -1.63477,-0.57617 -0.40136,-0.38281 -0.60156,-0.85058 -0.60156,-1.40137 0,-0.65722 0.1875,-1.15039 0.5625,-1.47753 0.36817,-0.33008 1.19629,-0.81934 2.4834,-1.46485 l 1.54297,-0.77539 c 0.6875,-0.34668 1.23437,-0.73047 1.64453,-1.15039 0.7627,-0.78809 1.14453,-1.74707 1.14453,-2.875 0,-1.05273 -0.41015,-2.04687 -1.22851,-2.98047 -0.81836,-0.93457 -2.12989,-1.40234 -3.9336,-1.40234 -0.41406,0 -0.83496,0.0391 -1.25879,0.11426 -0.4248,0.0762 -0.84472,0.19238 -1.25683,0.35156 l -0.40235,0.14844 c -0.0937,0.0244 -0.18359,0.0469 -0.27148,0.0635 -0.0859,0.0166 -0.15918,0.0244 -0.21973,0.0244 -0.21289,0 -0.35937,-0.0615 -0.4414,-0.1836 -0.0791,-0.12011 -0.15039,-0.29394 -0.20996,-0.51855 h -0.60352 v 5.1582 z"
       style="fill:#231f20;fill-opacity:1;fill-rule:nonzero;stroke:none"
       id="path142"
       inkscape:connector-curvature="0" /><path
       d="m 184.56738,-224.16504 h 0.60352 c 0.33105,-1.55078 0.86523,-2.67871 1.60449,-3.38281 0.73828,-0.7041 1.58691,-1.05664 2.54004,-1.05664 0.92871,0 1.58691,0.24219 1.97656,0.72851 0.39258,0.48535 0.58789,0.99512 0.58789,1.53418 0,0.62403 -0.2041,1.13184 -0.6123,1.52637 -0.26856,0.25879 -0.81543,0.5957 -1.63965,1.00781 l -1.32715,0.67285 c -1.31738,0.66504 -2.24609,1.32422 -2.78906,1.97559 -0.54199,0.65234 -0.81348,1.45605 -0.81348,2.41504 0,1.01855 0.3584,1.96973 1.07715,2.85254 0.71777,0.88183 1.81738,1.32422 3.30078,1.32422 0.75488,0 1.4834,-0.11621 2.1875,-0.35059 0.70606,-0.23437 1.1084,-0.35156 1.20801,-0.35156 0.22656,0 0.38379,0.0635 0.47168,0.19433 0.085,0.12598 0.15723,0.29786 0.20996,0.50782 h 0.62012 v -4.53711 h -0.58789 c -0.27149,1.05859 -0.75098,1.9707 -1.43653,2.73535 -0.68554,0.76562 -1.51757,1.14941 -2.49707,1.14941 -0.68945,0 -1.23437,-0.19238 -1.63672,-0.57617 -0.39941,-0.38281 -0.5996,-0.85058 -0.5996,-1.40137 0,-0.65722 0.1875,-1.15039 0.56347,-1.47753 0.36719,-0.33008 1.19531,-0.81934 2.48535,-1.46485 l 1.54004,-0.77539 c 0.6875,-0.34668 1.23438,-0.73047 1.64453,-1.15039 0.7627,-0.78809 1.14453,-1.74707 1.14453,-2.875 0,-1.05273 -0.41015,-2.04687 -1.22851,-2.98047 -0.81738,-0.93457 -2.12988,-1.40234 -3.93359,-1.40234 -0.41407,0 -0.83399,0.0391 -1.25879,0.11426 -0.42383,0.0762 -0.84278,0.19238 -1.25879,0.35156 l -0.40039,0.14844 c -0.0937,0.0244 -0.1836,0.0469 -0.27051,0.0635 -0.0859,0.0166 -0.15918,0.0244 -0.2207,0.0244 -0.21387,0 -0.36133,-0.0615 -0.44043,-0.1836 -0.0801,-0.12011 -0.14942,-0.29394 -0.21094,-0.51855 h -0.60352 v 5.1582 z"
       style="fill:#231f20;fill-opacity:1;fill-rule:nonzero;stroke:none"
       id="path144"
       inkscape:connector-curvature="0" /><path
       d="m 218.84961,-214.95898 c -2.1709,0 -3.93555,-0.72461 -5.29102,-2.17481 -1.28711,-1.38184 -1.92968,-3.09082 -1.92968,-5.12793 0,-1.9873 0.60742,-3.64355 1.82617,-4.97168 1.31738,-1.43652 3.10058,-2.15527 5.3457,-2.15527 1.36426,0 2.63379,0.37402 3.80274,1.12207 0.6875,0.44336 1.26074,0.95703 1.72461,1.54297 l -0.38379,0.38769 c -0.62696,-0.59375 -1.20215,-1.03613 -1.72657,-1.32812 -0.91406,-0.51856 -1.91113,-0.77735 -2.99316,-0.77735 -1.49902,0 -2.73828,0.55664 -3.71289,1.6709 -0.97949,1.11426 -1.4668,2.60547 -1.4668,4.47266 0,2.03222 0.46485,3.62597 1.39551,4.78418 0.92969,1.15918 2.12793,1.73828 3.59277,1.73828 1.45313,0 2.60743,-0.54004 3.4668,-1.62012 0.44824,-0.57324 0.81348,-1.32812 1.09375,-2.26465 h 0.47266 l -0.19532,4.70118 h -0.4248 c -0.0674,-0.23047 -0.18945,-0.40235 -0.36719,-0.50977 -0.17773,-0.1084 -0.36523,-0.16309 -0.56152,-0.16309 -0.0977,0 -0.54199,0.11231 -1.33789,0.33594 -0.79785,0.22461 -1.57324,0.33692 -2.33008,0.33692 z"
       style="fill:#231f20;fill-opacity:1;fill-rule:nonzero;stroke:none"
       id="path146"
       inkscape:connector-curvature="0" /><path
       d="m 230.49414,-228.6377 c 0.76465,0.0801 1.26074,0.2168 1.48731,0.40821 0.22656,0.18945 0.34082,0.67578 0.34082,1.45312 v 9.33594 c 0,0.73535 -0.11231,1.21484 -0.33497,1.44043 -0.2246,0.22656 -0.72265,0.36523 -1.49316,0.4209 v 0.3916 h 11.09961 l 0.0977,-2.93848 h -0.52246 c -0.17774,0.91895 -0.44239,1.5127 -0.79786,1.78125 -0.35254,0.27149 -1.14257,0.40625 -2.36914,0.40625 h -2.87402 c -0.31055,0 -0.50195,-0.0508 -0.57617,-0.14843 -0.0713,-0.10059 -0.10742,-0.28809 -0.10742,-0.56348 v -4.70703 h 3.23144 c 0.8877,0 1.45313,0.13086 1.69531,0.39355 0.24512,0.26367 0.44141,0.7959 0.58985,1.59766 h 0.49023 v -4.79883 h -0.49023 c -0.15723,0.80566 -0.35449,1.33887 -0.59961,1.59961 -0.24317,0.26074 -0.80567,0.3916 -1.68555,0.3916 h -3.23144 v -5.18847 c 0,-0.41797 0.12988,-0.66309 0.39355,-0.73829 0.26074,-0.0762 1.04883,-0.1123 2.35645,-0.1123 1.41796,0 2.46484,0.15234 3.13964,0.45703 0.67383,0.30566 1.28614,1.04688 1.83497,2.21973 h 0.56738 l -0.92481,-3.49317 h -11.31738 v 0.3916 z"
       style="fill:#231f20;fill-opacity:1;fill-rule:nonzero;stroke:none"
       id="path148"
       inkscape:connector-curvature="0" /><path
       d="m 248.47949,-228.6377 c 0.86133,0.0879 1.41406,0.28418 1.65723,0.58594 0.24414,0.30371 0.36719,1.00586 0.36719,2.10742 v 9.21192 l -0.28614,0.33691 c -0.30371,0.36133 -0.5625,0.58399 -0.77734,0.66699 -0.21387,0.0859 -0.53418,0.13477 -0.96094,0.14942 v 0.3916 h 3.55274 l 8.06933,-10.03418 v 6.96777 c 0,1.14649 -0.16992,1.89161 -0.50781,2.23828 -0.22266,0.22266 -0.71875,0.36915 -1.4834,0.43653 v 0.3916 h 4.89649 v -0.3916 c -0.7959,-0.082 -1.32813,-0.27539 -1.59375,-0.58399 -0.26465,-0.30566 -0.39746,-1.00781 -0.39746,-2.10546 v -11.02149 h -0.35547 l -9.24219,11.49121 v -8.14355 c 0,-1.14453 0.16699,-1.88965 0.5,-2.23633 0.21777,-0.22363 0.70312,-0.37695 1.45801,-0.45899 v -0.3916 h -4.89649 z"
       style="fill:#231f20;fill-opacity:1;fill-rule:nonzero;stroke:none"
       id="path150"
       inkscape:connector-curvature="0" /><path
       d="m 268.9541,-215.1875 h 11.85059 l 0.0986,-3.55859 h -0.49023 c -0.24707,1.1123 -0.5586,1.83886 -0.93653,2.17285 -0.3789,0.33496 -1.17676,0.5039 -2.39355,0.5039 h -1.14258 v -10.70703 c 0,-0.79785 0.125,-1.29394 0.37012,-1.4834 0.24804,-0.19238 0.78711,-0.31836 1.62109,-0.37793 v -0.3916 h -6.10449 v 0.3916 c 0.88965,0.0674 1.44238,0.21485 1.66308,0.43653 0.21875,0.22265 0.32813,0.78613 0.32813,1.68554 v 10.44629 h -1.14258 c -1.15234,0 -1.9375,-0.16504 -2.35644,-0.49902 -0.41602,-0.33105 -0.73047,-1.05762 -0.94043,-2.17773 h -0.52246 l 0.0976,3.55859 z"
       style="fill:#231f20;fill-opacity:1;fill-rule:nonzero;stroke:none"
       id="path152"
       inkscape:connector-curvature="0" /><path
       d="m 286.77734,-228.6377 c 0.76465,0.0801 1.26075,0.2168 1.48731,0.40821 0.22656,0.18945 0.34082,0.67578 0.34082,1.45312 v 9.33594 c 0,0.73535 -0.11231,1.21484 -0.33496,1.44043 -0.22461,0.22656 -0.72168,0.36523 -1.49317,0.4209 v 0.3916 h 11.09961 l 0.0977,-2.93848 h -0.52246 c -0.17774,0.91895 -0.44238,1.5127 -0.7959,1.78125 -0.35449,0.27149 -1.14453,0.40625 -2.37109,0.40625 h -2.87696 c -0.30957,0 -0.49902,-0.0508 -0.57324,-0.14843 -0.0713,-0.10059 -0.10742,-0.28809 -0.10742,-0.56348 v -4.70703 h 3.23144 c 0.88575,0 1.45313,0.13086 1.69532,0.39355 0.24511,0.26367 0.4414,0.7959 0.58984,1.59766 h 0.49024 v -4.79883 h -0.49024 c -0.15527,0.80566 -0.35449,1.33887 -0.59961,1.59961 -0.24316,0.26074 -0.80566,0.3916 -1.68555,0.3916 h -3.23144 v -5.18847 c 0,-0.41797 0.12988,-0.66309 0.39355,-0.73829 0.2627,-0.0762 1.04883,-0.1123 2.35645,-0.1123 1.41797,0 2.46484,0.15234 3.14062,0.45703 0.67481,0.30566 1.28516,1.04688 1.83399,2.21973 h 0.56738 l -0.92676,-3.49317 h -11.31543 v 0.3916 z"
       style="fill:#231f20;fill-opacity:1;fill-rule:nonzero;stroke:none"
       id="path154"
       inkscape:connector-curvature="0" /><path
       d="m 304.73047,-228.6377 c 0.81836,0.0762 1.32617,0.23047 1.52637,0.46778 0.20117,0.23633 0.30175,0.78711 0.30175,1.65429 v 9.0752 c 0,0.72852 -0.1123,1.20605 -0.33691,1.43066 -0.22656,0.22657 -0.72266,0.36914 -1.49121,0.43067 v 0.3916 h 5.8125 c 1.20801,0 2.21582,-0.15332 3.02441,-0.45898 1.53028,-0.57715 2.29492,-1.64258 2.29492,-3.19141 0,-1.04004 -0.34082,-1.83984 -1.01757,-2.39746 -0.67969,-0.55664 -1.60254,-0.92383 -2.76953,-1.10156 l 4.31738,-5.31055 c 0.26562,-0.32324 0.53125,-0.55957 0.79785,-0.70606 0.26562,-0.14941 0.60645,-0.24316 1.02246,-0.28418 v -0.3916 h -3.42383 l -5.2539,6.46387 -0.8545,-0.0654 v -4.125 c 0,-0.77344 0.11622,-1.26367 0.35254,-1.46973 0.23243,-0.208 0.74512,-0.34472 1.53418,-0.41211 v -0.3916 h -5.83691 v 0.3916 m 7.18164,7.21485 c 1.11035,0.46289 1.66504,1.33203 1.66504,2.60742 0,1.22852 -0.49805,2.06738 -1.49121,2.51563 -0.53321,0.24121 -1.23828,0.36132 -2.11817,0.36132 -0.59179,0 -0.95507,-0.043 -1.08789,-0.12793 -0.13183,-0.0859 -0.19922,-0.28808 -0.19922,-0.60449 v -5.20898 c 1.50782,0.0527 2.58497,0.20605 3.23145,0.45703 z"
       style="fill:#231f20;fill-opacity:1;fill-rule:nonzero;stroke:none"
       id="path156"
       inkscape:connector-curvature="0" /><path
       d="M 21.58984,-238.59473 H 198.83398"
       style="fill:none;stroke:#6a791b;stroke-width:3.13399005;stroke-linecap:butt;stroke-linejoin:miter;stroke-miterlimit:4;stroke-dasharray:none;stroke-opacity:1"
       id="path158"
       inkscape:connector-curvature="0" /><path
       d="m 50.90771,-125.5 c 0,-31.73535 27.16944,-57.45801 60.69629,-57.45801 33.52344,0 60.70069,25.72266 60.70069,57.45801 0,31.74268 -27.17725,57.46826 -60.70069,57.46826 -33.52685,0 -60.69629,-25.72558 -60.69629,-57.46826 z"
       style="fill:#6a791b;fill-opacity:1;fill-rule:nonzero;stroke:#6a791b;stroke-width:1.62109005;stroke-linecap:butt;stroke-linejoin:miter;stroke-miterlimit:4;stroke-dasharray:none;stroke-opacity:1"
       id="path160"
       inkscape:connector-curvature="0" /><path
       d="m 45.95947,-125.5 c 0,-34.32031 29.3916,-62.14648 65.64453,-62.14648 36.25342,0 65.64698,27.82617 65.64698,62.14648 0,34.33154 -29.39356,62.15381 -65.64698,62.15381 -36.25293,0 -65.64453,-27.82227 -65.64453,-62.15381 z"
       style="fill:none;stroke:#6a791b;stroke-width:0.95670003;stroke-linecap:butt;stroke-linejoin:miter;stroke-miterlimit:4;stroke-dasharray:none;stroke-opacity:1"
       id="path162"
       inkscape:connector-curvature="0" /><path
       d="m 56.97559,-125.5 c 0,-28.56055 24.45996,-51.70996 54.62841,-51.70996 30.16895,0 54.62452,23.14941 54.62452,51.70996 0,28.56641 -24.45557,51.71533 -54.62452,51.71533 -30.16845,0 -54.62841,-23.14892 -54.62841,-51.71533 z"
       style="fill:#ffffff;fill-opacity:1;fill-rule:nonzero;stroke:#6a791b;stroke-width:2.26961994;stroke-linecap:butt;stroke-linejoin:miter;stroke-miterlimit:4;stroke-dasharray:none;stroke-opacity:1"
       id="path164"
       inkscape:connector-curvature="0" /><path
       d="m 63.14746,-125.1582 c 0,-25.39063 21.7544,-45.96973 48.5669,-45.96973 26.82275,0 48.55664,20.5791 48.55664,45.96973 0,25.38867 -21.73389,45.96679 -48.55664,45.96679 -26.8125,0 -48.5669,-20.57812 -48.5669,-45.96679 z"
       style="fill:#6a791b;fill-opacity:1;fill-rule:nonzero;stroke:#6a791b;stroke-width:1.62109005;stroke-linecap:butt;stroke-linejoin:miter;stroke-miterlimit:4;stroke-dasharray:none;stroke-opacity:1"
       id="path166"
       inkscape:connector-curvature="0" /><path
       d="m 78.23633,-125.2627 c 0,-17.45312 14.94531,-31.60742 33.38428,-31.60742 18.44043,0 33.38427,14.1543 33.38427,31.60742 0,17.45704 -14.94384,31.60938 -33.38427,31.60938 -18.43897,0 -33.38428,-14.15234 -33.38428,-31.60938 z"
       style="fill:#ffffff;fill-opacity:1;fill-rule:nonzero;stroke:none"
       id="path168"
       inkscape:connector-curvature="0" /><path
       d="m 104.1958,-88.45898 -3.22803,-0.74122 -0.38574,-2.60253 -1.06103,-0.24317 1.23242,8.6709 1.12451,0.25977 4.87402,-7.27491 -1.07715,-0.24756 -1.479,2.17872 m -0.51416,0.77148 -2.05664,3.09521 -0.52246,-3.68896 z"
       style="fill:#ffffff;fill-opacity:1;fill-rule:nonzero;stroke:#ffffff;stroke-width:0.47845;stroke-linecap:butt;stroke-linejoin:miter;stroke-miterlimit:4;stroke-dasharray:none;stroke-opacity:1"
       id="path170"
       inkscape:connector-curvature="0" /><path
       d="m 107.51123,-83.08447 2.70947,0.05224 0.13868,-7.26367 1.02832,0.01904 -0.13428,7.26172 2.70117,0.05616 -0.0161,0.9121 -6.43946,-0.12744 z"
       style="fill:#ffffff;fill-opacity:1;fill-rule:nonzero;stroke:#ffffff;stroke-width:0.47845;stroke-linecap:butt;stroke-linejoin:miter;stroke-miterlimit:4;stroke-dasharray:none;stroke-opacity:1"
       id="path172"
       inkscape:connector-curvature="0" /><path
       d="m 121.41016,-90.70703 c 0.7915,0.45605 1.25683,1.12012 1.43213,1.99414 l -0.9751,0.18262 c -0.12256,-0.65674 -0.46924,-1.1333 -1.04053,-1.43213 -0.57129,-0.29492 -1.17139,-0.38672 -1.7876,-0.27051 -0.82812,0.15625 -1.3833,0.5835 -1.67724,1.27832 -0.29346,0.69482 -0.35059,1.50488 -0.1792,2.4209 0.15918,0.87207 0.53027,1.58935 1.10986,2.1626 0.57129,0.57031 1.23242,0.78759 1.979,0.64502 0.73487,-0.13575 1.27344,-0.41651 1.59571,-0.83985 0.33447,-0.41797 0.50586,-0.84765 0.51416,-1.29541 l 0.96728,-0.17969 c 0.0693,0.70606 -0.13867,1.36914 -0.6206,1.98926 -0.48535,0.61865 -1.24463,1.02442 -2.28907,1.22363 -1.02441,0.19483 -1.93408,-0.05322 -2.73437,-0.73779 -0.80371,-0.68066 -1.32178,-1.63867 -1.55029,-2.86377 -0.22461,-1.16504 -0.11426,-2.18408 0.32226,-3.05761 0.43653,-0.87598 1.22803,-1.41993 2.3833,-1.63819 0.91797,-0.17236 1.771,-0.03662 2.5503,0.41846 z"
       style="fill:#ffffff;fill-opacity:1;fill-rule:nonzero;stroke:#ffffff;stroke-width:0.47845;stroke-linecap:butt;stroke-linejoin:miter;stroke-miterlimit:4;stroke-dasharray:none;stroke-opacity:1"
       id="path174"
       inkscape:connector-curvature="0" /><path
       d="m 77.16309,-102.20703 2.12402,2.54297 -1.27148,2.30468 0.68994,0.83985 4.28271,-7.64844 -0.74072,-0.88379 -8.28613,2.83594 0.70605,0.84961 2.49561,-0.84082 m 0.87939,-0.29981 3.51514,-1.21777 -1.81787,3.25195 z"
       style="fill:#ffffff;fill-opacity:1;fill-rule:nonzero;stroke:#ffffff;stroke-width:0.47845;stroke-linecap:butt;stroke-linejoin:miter;stroke-miterlimit:4;stroke-dasharray:none;stroke-opacity:1"
       id="path176"
       inkscape:connector-curvature="0" /><path
       d="m 77.55469,-107.46289 c 0.68945,-0.33984 1.11621,-0.83984 1.2832,-1.49805 0.16357,-0.65625 0.04932,-1.39453 -0.36084,-2.21094 -0.3999,-0.7998 -0.92432,-1.31835 -1.57519,-1.55859 -0.65284,-0.24316 -1.30616,-0.20019 -1.95899,0.12402 l 0.43652,0.8711 c 0.51416,-0.15528 0.95704,-0.1709 1.32227,-0.042 0.36719,0.12793 0.68164,0.46679 0.95898,1.00976 0.24903,0.50195 0.35694,0.95899 0.32227,1.3584 -0.02637,0.4082 -0.23437,0.70215 -0.62012,0.89355 -0.43652,0.2168 -0.79785,0.21094 -1.0791,-0.0244 -0.28564,-0.23242 -0.7124,-0.68555 -1.26514,-1.3623 -0.56298,-0.67969 -1.07519,-1.15528 -1.54443,-1.43067 -0.46142,-0.27148 -1.04687,-0.2373 -1.73242,0.10254 -0.68945,0.34766 -1.09766,0.86914 -1.22217,1.57617 -0.13476,0.70215 -0.01025,1.42676 0.35108,2.16309 0.48535,0.97363 1.08544,1.58691 1.80761,1.84277 0.71631,0.25586 1.44043,0.19922 2.1709,-0.16211 l -0.43066,-0.88476 c -0.5791,0.22265 -1.08741,0.25879 -1.53223,0.0947 -0.44873,-0.16015 -0.84033,-0.58496 -1.18115,-1.2705 -0.25928,-0.52539 -0.35938,-1.00391 -0.2959,-1.43946 0.0752,-0.43359 0.31201,-0.75586 0.72217,-0.95703 0.45117,-0.22656 0.8164,-0.22851 1.10595,-0.0107 0.29395,0.21582 0.70606,0.65332 1.23633,1.30371 0.53662,0.65234 1.02637,1.14453 1.4795,1.47461 0.45263,0.33789 0.98339,0.34961 1.60156,0.0371 z"
       style="fill:#ffffff;fill-opacity:1;fill-rule:nonzero;stroke:#ffffff;stroke-width:0.47845;stroke-linecap:butt;stroke-linejoin:miter;stroke-miterlimit:4;stroke-dasharray:none;stroke-opacity:1"
       id="path178"
       inkscape:connector-curvature="0" /><path
       d="m 68.64258,-113.51367 7.84082,-2.32227 -0.29395,-0.98828 -7.83691,2.32227 z"
       style="fill:#ffffff;fill-opacity:1;fill-rule:nonzero;stroke:#ffffff;stroke-width:0.47845;stroke-linecap:butt;stroke-linejoin:miter;stroke-miterlimit:4;stroke-dasharray:none;stroke-opacity:1"
       id="path180"
       inkscape:connector-curvature="0" /><path
       d="m 69.31152,-123.3125 0.34082,3.29687 -2.33398,1.20508 0.11182,1.08106 7.80029,-3.9668 -0.12012,-1.14648 -8.44922,-2.26465 0.10596,1.10351 2.54443,0.69141 m 0.89356,0.24121 3.59717,0.94629 -3.32129,1.68555 z"
       style="fill:#ffffff;fill-opacity:1;fill-rule:nonzero;stroke:#ffffff;stroke-width:0.47845;stroke-linecap:butt;stroke-linejoin:miter;stroke-miterlimit:4;stroke-dasharray:none;stroke-opacity:1"
       id="path182"
       inkscape:connector-curvature="0" /><path
       d="m 66.81641,-128.44531 8.08398,1.24414 0.18555,-1.22852 -5.98438,-5.15527 6.625,1.02148 0.15479,-1.02148 -8.08594,-1.24317 -0.19141,1.23633 5.9126,5.13379 -6.53906,-1.00781 z"
       style="fill:#ffffff;fill-opacity:1;fill-rule:nonzero;stroke:#ffffff;stroke-width:0.47845;stroke-linecap:butt;stroke-linejoin:miter;stroke-miterlimit:4;stroke-dasharray:none;stroke-opacity:1"
       id="path184"
       inkscape:connector-curvature="0" /><path
       d="m 77.65039,-138.63477 3.17676,-5.60937 -0.79981,-0.45117 -1.33203,2.3584 -6.32129,-3.57618 -0.50976,0.89746 6.32715,3.57715 -1.33057,2.35254 z"
       style="fill:#ffffff;fill-opacity:1;fill-rule:nonzero;stroke:#ffffff;stroke-width:0.47845;stroke-linecap:butt;stroke-linejoin:miter;stroke-miterlimit:4;stroke-dasharray:none;stroke-opacity:1"
       id="path186"
       inkscape:connector-curvature="0" /><path
       d="m 81.76172,-145.48926 0.70019,-0.76074 -4.21582,-3.86035 c -0.37109,-0.34668 -0.53222,-0.76953 -0.48144,-1.26856 0.05957,-0.50195 0.27783,-0.95898 0.66113,-1.37109 0.3794,-0.41504 0.81641,-0.66992 1.31836,-0.76367 0.49951,-0.0918 0.93848,0.0332 1.31982,0.38379 l 4.18702,3.83984 0.69384,-0.76074 -4.11572,-3.77735 c -0.5918,-0.54199 -1.2793,-0.7832 -2.04443,-0.70117 -0.76904,0.0733 -1.46094,0.44434 -2.08106,1.12207 -0.60791,0.66895 -0.92236,1.38282 -0.94677,2.15039 -0.02051,0.76465 0.25927,1.41211 0.83642,1.94239 z"
       style="fill:#ffffff;fill-opacity:1;fill-rule:nonzero;stroke:#ffffff;stroke-width:0.47845;stroke-linecap:butt;stroke-linejoin:miter;stroke-miterlimit:4;stroke-dasharray:none;stroke-opacity:1"
       id="path188"
       inkscape:connector-curvature="0" /><path
       d="m 83.12891,-158.31641 4.5747,6.77637 3.0503,-2.05957 c 0.77295,-0.52637 1.23437,-1.07324 1.37695,-1.64453 0.13672,-0.57129 0.01416,-1.15039 -0.3833,-1.73828 -0.31641,-0.47754 -0.65723,-0.77051 -1.01221,-0.88965 -0.35693,-0.12012 -0.6958,-0.12988 -1.02637,-0.0283 0.18799,-0.27344 0.29004,-0.54297 0.31836,-0.80762 0.02637,-0.26953 -0.16943,-0.75097 -0.57959,-1.43847 -0.40185,-0.69239 -0.62841,-1.09961 -0.67089,-1.22266 -0.05127,-0.12402 -0.07764,-0.22656 -0.0879,-0.30566 -0.0063,-0.082 0.0039,-0.15723 0.05274,-0.23243 l -0.0957,-0.13476 -1.07129,0.71777 0.21826,0.47363 c 0.05127,0.0977 0.27148,0.44629 0.66748,1.04883 0.38574,0.60156 0.54492,1.04492 0.46533,1.32813 -0.07959,0.2832 -0.17578,0.49218 -0.3042,0.62597 -0.11621,0.13086 -0.27734,0.26172 -0.47119,0.39649 l -2.19336,1.48144 -1.9751,-2.92187 -0.85302,0.57519 m 4.91748,5.44141 -1.57764,-2.33984 2.11621,-1.43262 c 0.49365,-0.33106 0.92822,-0.48535 1.29736,-0.46484 0.37159,0.0244 0.69385,0.23632 0.96924,0.64257 0.26953,0.40528 0.35108,0.78711 0.22852,1.14063 -0.12451,0.35449 -0.42822,0.69726 -0.91211,1.02344 z"
       style="fill:#ffffff;fill-opacity:1;fill-rule:nonzero;stroke:#ffffff;stroke-width:0.47845;stroke-linecap:butt;stroke-linejoin:miter;stroke-miterlimit:4;stroke-dasharray:none;stroke-opacity:1"
       id="path190"
       inkscape:connector-curvature="0" /><path
       d="m 91.97998,-163.6709 3.02979,7.59863 5.24169,-2.08691 -0.34082,-0.84668 -4.28027,1.70313 -0.9834,-2.47071 3.49073,-1.3916 -0.33057,-0.85254 -3.49902,1.39551 -1.36719,-3.42773 z"
       style="fill:#ffffff;fill-opacity:1;fill-rule:nonzero;stroke:#ffffff;stroke-width:0.47845;stroke-linecap:butt;stroke-linejoin:miter;stroke-miterlimit:4;stroke-dasharray:none;stroke-opacity:1"
       id="path192"
       inkscape:connector-curvature="0" /><path
       d="m 103.62207,-167.37988 c -1.0708,0.17968 -1.85059,0.70996 -2.35254,1.59179 -0.49365,0.88575 -0.64453,1.89746 -0.45898,3.04004 0.2041,1.22852 0.70019,2.19727 1.4834,2.90137 0.78564,0.7041 1.6914,0.9707 2.72607,0.7998 1.03857,-0.17578 1.81396,-0.56542 2.30762,-1.17089 0.49756,-0.61036 0.72216,-1.26758 0.66894,-1.97559 l -0.97119,0.15918 c -0.0283,0.44531 -0.20361,0.87305 -0.54248,1.28516 -0.33887,0.41211 -0.87939,0.67773 -1.61182,0.7998 -0.75732,0.12695 -1.41015,-0.10547 -1.97314,-0.69336 -0.55713,-0.58594 -0.91406,-1.31152 -1.05469,-2.18066 -0.15527,-0.92676 -0.0693,-1.73242 0.23633,-2.41992 0.31006,-0.69239 0.87939,-1.10059 1.70605,-1.23731 0.69581,-0.11621 1.36915,-0.01 2.01563,0.3252 0.64893,0.33203 1.04492,0.95898 1.1958,1.88476 l -2.43408,0.4043 0.15283,0.89746 3.33398,-0.55078 -0.71386,-4.30469 -0.5918,0.0977 -0.13476,1.0791 c -0.45313,-0.35938 -0.91016,-0.59375 -1.3794,-0.70801 -0.46728,-0.11816 -1.00195,-0.12207 -1.60791,-0.0244 z"
       style="fill:#ffffff;fill-opacity:1;fill-rule:nonzero;stroke:#ffffff;stroke-width:0.47845;stroke-linecap:butt;stroke-linejoin:miter;stroke-miterlimit:4;stroke-dasharray:none;stroke-opacity:1"
       id="path194"
       inkscape:connector-curvature="0" /><path
       d="m 111.52686,-167.99219 -0.48194,8.16406 3.66455,0.21778 c 0.94287,0.0576 1.63623,-0.0957 2.09766,-0.46094 0.46094,-0.36719 0.71387,-0.90625 0.75879,-1.61426 0.0327,-0.57129 -0.0571,-1.01367 -0.26904,-1.32422 -0.20801,-0.31152 -0.47364,-0.52636 -0.7959,-0.64648 0.31445,-0.0996 0.55517,-0.25488 0.74267,-0.45117 0.1836,-0.19922 0.32227,-0.69727 0.42041,-1.48926 0.10205,-0.7959 0.16309,-1.25293 0.20801,-1.38086 0.0327,-0.125 0.0776,-0.22461 0.11426,-0.29199 0.0488,-0.0693 0.10205,-0.125 0.17969,-0.15527 l 0.0122,-0.167 -1.28564,-0.0781 -0.11426,0.50879 c -0.02,0.10742 -0.0571,0.51562 -0.10986,1.23633 -0.0571,0.71582 -0.2002,1.16308 -0.44092,1.33984 -0.23242,0.17578 -0.43652,0.28027 -0.61621,0.31055 -0.17969,0.0322 -0.3833,0.041 -0.62012,0.0244 l -2.64014,-0.15527 0.21192,-3.52539 -1.03613,-0.0615 m 0.5957,7.31543 0.16699,-2.81836 2.55469,0.15137 c 0.5957,0.0361 1.03222,0.1709 1.31396,0.41992 0.28174,0.24317 0.40821,0.61231 0.3794,1.09766 -0.0327,0.48828 -0.19971,0.83496 -0.51416,1.04492 -0.31397,0.20801 -0.76319,0.29395 -1.34668,0.25684 z"
       style="fill:#ffffff;fill-opacity:1;fill-rule:nonzero;stroke:#ffffff;stroke-width:0.47845;stroke-linecap:butt;stroke-linejoin:miter;stroke-miterlimit:4;stroke-dasharray:none;stroke-opacity:1"
       id="path196"
       inkscape:connector-curvature="0" /><path
       d="m 125.62939,-163.27051 -3.18701,-0.90137 -0.25683,-2.61816 -1.04883,-0.2959 0.7915,8.72071 1.10987,0.31347 5.23584,-7.0166 -1.06104,-0.2998 -1.5835,2.09765 m -0.55908,0.74707 -2.21142,2.98633 -0.33887,-3.70898 z"
       style="fill:#ffffff;fill-opacity:1;fill-rule:nonzero;stroke:#ffffff;stroke-width:0.47845;stroke-linecap:butt;stroke-linejoin:miter;stroke-miterlimit:4;stroke-dasharray:none;stroke-opacity:1"
       id="path198"
       inkscape:connector-curvature="0" /><path
       d="m 128.30664,-158.72266 c -0.35937,0.67578 -0.42432,1.33203 -0.16748,1.96094 0.24512,0.63281 0.77148,1.16113 1.5835,1.58692 0.78759,0.41699 1.51806,0.53515 2.1831,0.35156 0.66944,-0.18164 1.1836,-0.59961 1.52197,-1.24317 l -0.86084,-0.45507 c -0.33056,0.42675 -0.67724,0.69824 -1.05273,0.80664 -0.36768,0.10742 -0.82861,0.0186 -1.36328,-0.26368 -0.50195,-0.26074 -0.85693,-0.56933 -1.05664,-0.91796 -0.2124,-0.34473 -0.21631,-0.70606 -0.0205,-1.08106 0.22852,-0.43457 0.53027,-0.63672 0.89795,-0.61426 0.36279,0.0205 0.9751,0.14649 1.82373,0.3711 0.84912,0.22461 1.54688,0.3125 2.08154,0.26367 0.54248,-0.0518 0.99561,-0.41895 1.34619,-1.09766 0.36329,-0.67773 0.39209,-1.34277 0.0859,-1.99219 -0.31445,-0.64648 -0.82861,-1.16503 -1.55078,-1.54589 -0.96289,-0.51075 -1.81201,-0.65918 -2.54199,-0.44922 -0.73047,0.20801 -1.28955,0.67773 -1.66943,1.40136 l 0.86914,0.45899 c 0.33056,-0.51367 0.73046,-0.83984 1.19189,-0.9668 0.45264,-0.13086 1.02002,-0.0147 1.68945,0.34278 0.52198,0.27734 0.87744,0.60839 1.08106,1 0.19629,0.3955 0.18799,0.79589 -0.0283,1.19531 -0.23242,0.44531 -0.53076,0.66504 -0.89356,0.65722 -0.36718,-0.006 -0.95117,-0.11816 -1.76318,-0.33886 -0.81201,-0.21778 -1.49316,-0.33008 -2.06055,-0.33887 -0.55908,-0.0117 -1,0.29004 -1.32617,0.9082 z"
       style="fill:#ffffff;fill-opacity:1;fill-rule:nonzero;stroke:#ffffff;stroke-width:0.47845;stroke-linecap:butt;stroke-linejoin:miter;stroke-miterlimit:4;stroke-dasharray:none;stroke-opacity:1"
       id="path200"
       inkscape:connector-curvature="0" /><path
       d="m 135.44775,-154.64844 c -0.48535,0.58789 -0.67724,1.2168 -0.56738,1.88574 0.11426,0.66895 0.51856,1.29786 1.22022,1.88282 0.68994,0.56933 1.37548,0.83886 2.06494,0.79785 0.69385,-0.04 1.27734,-0.34082 1.74267,-0.90137 l -0.74267,-0.62402 c -0.40821,0.35058 -0.80811,0.54004 -1.19971,0.57129 -0.38379,0.0283 -0.8125,-0.15137 -1.28174,-0.54297 -0.42822,-0.35938 -0.71387,-0.73047 -0.84472,-1.11426 -0.13038,-0.38379 -0.0527,-0.73828 0.2163,-1.06543 0.31006,-0.37305 0.64502,-0.51172 0.99561,-0.41406 0.35937,0.0986 0.93066,0.34472 1.70996,0.74121 0.7876,0.39941 1.44482,0.62793 1.9834,0.69336 0.53467,0.0615 1.05664,-0.2002 1.54639,-0.79199 0.49414,-0.58692 0.65722,-1.23243 0.49414,-1.9336 -0.16358,-0.69433 -0.56348,-1.3125 -1.2002,-1.83496 -0.82812,-0.69922 -1.62793,-1.02148 -2.38281,-0.96875 -0.76319,0.0527 -1.4082,0.39551 -1.93457,1.02637 l 0.75488,0.63281 c 0.43701,-0.43945 0.89404,-0.67187 1.36719,-0.70215 0.47363,-0.0303 1.0039,0.19825 1.5874,0.6875 0.45313,0.37989 0.73877,0.7793 0.84912,1.20606 0.11426,0.42187 0.0161,0.81347 -0.27344,1.16308 -0.32275,0.38575 -0.66113,0.53614 -1.0122,0.45508 -0.35498,-0.082 -0.90576,-0.31445 -1.66065,-0.69824 -0.74267,-0.38379 -1.38769,-0.63672 -1.93847,-0.76074 -0.54688,-0.12696 -1.04053,0.0752 -1.49366,0.60937 z"
       style="fill:#ffffff;fill-opacity:1;fill-rule:nonzero;stroke:#ffffff;stroke-width:0.47845;stroke-linecap:butt;stroke-linejoin:miter;stroke-miterlimit:4;stroke-dasharray:none;stroke-opacity:1"
       id="path202"
       inkscape:connector-curvature="0" /><path
       d="m 151.05664,-146.11914 c -0.5918,-1.01172 -1.37109,-1.57324 -2.34228,-1.69141 -0.97559,-0.12011 -1.96729,0.12207 -2.99561,0.72852 -1.06885,0.62793 -1.79932,1.43848 -2.1748,2.42383 -0.37159,0.9834 -0.28956,1.92578 0.23681,2.82812 0.53858,0.91406 1.18311,1.49317 1.92578,1.73828 0.74707,0.24903 1.44043,0.21582 2.07715,-0.0898 l -0.49756,-0.84668 c -0.42041,0.14453 -0.88574,0.12793 -1.38769,-0.043 -0.50586,-0.16992 -0.95508,-0.57715 -1.33448,-1.22266 -0.3833,-0.65429 -0.3999,-1.35253 -0.0527,-2.083 0.33838,-0.73438 0.89746,-1.32618 1.65674,-1.77246 0.80371,-0.47559 1.5874,-0.69043 2.33789,-0.64747 0.75928,0.041 1.34277,0.4209 1.76709,1.14454 0.32226,0.54296 0.44092,1.13671 0.35498,1.77343 -0.0854,0.64063 -0.42041,1.12989 -0.99951,1.46875 l 0.49756,0.84864 c 0.76709,-0.45215 1.23681,-1.12012 1.3999,-2.01172 0.15918,-0.88965 0.008,-1.73828 -0.46924,-2.5459 z"
       style="fill:#ffffff;fill-opacity:1;fill-rule:nonzero;stroke:#ffffff;stroke-width:0.47845;stroke-linecap:butt;stroke-linejoin:miter;stroke-miterlimit:4;stroke-dasharray:none;stroke-opacity:1"
       id="path204"
       inkscape:connector-curvature="0" /><path
       d="m 154.20264,-139.28418 -7.86328,2.25293 1.5996,5.57617 0.87305,-0.25097 -1.31396,-4.58692 2.47314,-0.70605 1.15479,4.03222 0.87744,-0.24902 -1.15479,-4.03418 2.7583,-0.79102 1.31397,4.58399 0.87744,-0.25488 z"
       style="fill:#ffffff;fill-opacity:1;fill-rule:nonzero;stroke:#ffffff;stroke-width:0.47845;stroke-linecap:butt;stroke-linejoin:miter;stroke-miterlimit:4;stroke-dasharray:none;stroke-opacity:1"
       id="path206"
       inkscape:connector-curvature="0" /><path
       d="m 156.44287,-129.71094 -8.18164,0.19824 0.0366,1.24024 6.79053,4.02441 -6.69238,0.16211 0.0244,1.0293 8.17383,-0.19824 -0.0249,-1.24903 -6.72901,-4.01562 6.61914,-0.16309 -0.0166,-1.02832 z"
       style="fill:#ffffff;fill-opacity:1;fill-rule:nonzero;stroke:#ffffff;stroke-width:0.47845;stroke-linecap:butt;stroke-linejoin:miter;stroke-miterlimit:4;stroke-dasharray:none;stroke-opacity:1"
       id="path208"
       inkscape:connector-curvature="0" /><path
       d="m 148.28174,-121.63477 -1.39551,6.28809 0.89746,0.19629 0.5835,-2.64063 7.09228,1.57129 0.22461,-1.01074 -7.09619,-1.56641 0.5874,-2.64062 z"
       style="fill:#ffffff;fill-opacity:1;fill-rule:nonzero;stroke:#ffffff;stroke-width:0.47845;stroke-linecap:butt;stroke-linejoin:miter;stroke-miterlimit:4;stroke-dasharray:none;stroke-opacity:1"
       id="path210"
       inkscape:connector-curvature="0" /><path
       d="m 153.59863,-110.12305 -7.33691,-3.60742 -2.55029,5.20313 0.80761,0.40136 2.10596,-4.27441 2.30957,1.13476 -1.84863,3.76172 0.81201,0.40235 1.85254,-3.76367 2.5791,1.26562 -2.10156,4.27637 0.81201,0.40136 z"
       style="fill:#ffffff;fill-opacity:1;fill-rule:nonzero;stroke:#ffffff;stroke-width:0.47845;stroke-linecap:butt;stroke-linejoin:miter;stroke-miterlimit:4;stroke-dasharray:none;stroke-opacity:1"
       id="path212"
       inkscape:connector-curvature="0" /><path
       d="m 148.75928,-101.42773 -6.26026,-5.26368 -2.3667,2.81641 c -0.604,0.71484 -0.88964,1.37109 -0.87304,1.95703 0.0161,0.58789 0.29785,1.11328 0.83642,1.56836 0.44873,0.36914 0.85303,0.5625 1.22412,0.58008 0.37549,0.01758 0.70997,-0.06738 0.99561,-0.25586 -0.10596,0.3125 -0.13428,0.60059 -0.0771,0.86621 0.0449,0.26465 0.36279,0.67188 0.93408,1.22559 0.57959,0.55273 0.91016,0.88086 0.9917,0.98632 0.0815,0.10938 0.13867,0.19922 0.16358,0.27344 0.0322,0.07422 0.0405,0.1543 0.02,0.23828 l 0.12646,0.10352 0.82861,-0.98633 -0.33886,-0.38867 c -0.0771,-0.08399 -0.3833,-0.35645 -0.92188,-0.83106 -0.54687,-0.47363 -0.82031,-0.85449 -0.82031,-1.14941 0,-0.29492 0.0366,-0.52051 0.12207,-0.68164 0.0776,-0.16406 0.19189,-0.33399 0.34277,-0.51367 l 1.70996,-2.0293 2.70166,2.27344 0.66114,-0.78906 m -6.22315,-3.88672 2.15869,1.81933 -1.64062,1.95606 c -0.3877,0.45117 -0.75879,0.71972 -1.12207,0.80078 -0.36328,0.084 -0.73047,-0.0322 -1.10596,-0.35156 -0.37158,-0.3125 -0.55078,-0.65625 -0.53027,-1.03321 0.02,-0.37695 0.22021,-0.78906 0.5957,-1.23437 z"
       style="fill:#ffffff;fill-opacity:1;fill-rule:nonzero;stroke:#ffffff;stroke-width:0.47845;stroke-linecap:butt;stroke-linejoin:miter;stroke-miterlimit:4;stroke-dasharray:none;stroke-opacity:1"
       id="path214"
       inkscape:connector-curvature="0" /><path
       d="m 136.90039,-92.78955 c 0,-0.81299 -0.66894,-1.47412 -1.47705,-1.47412 -0.82422,0 -1.47314,0.66113 -1.47314,1.47412 0,0.81641 0.64892,1.47949 1.47314,1.47949 0.80811,0 1.47705,-0.66308 1.47705,-1.47949 z"
       style="fill:#ffffff;fill-opacity:1;fill-rule:nonzero;stroke:none"
       id="path216"
       inkscape:connector-curvature="0" /><path
       d="m 88.33203,-92.78955 c 0,-0.81299 -0.66113,-1.47412 -1.47949,-1.47412 -0.81006,0 -1.46484,0.66113 -1.46484,1.47412 0,0.81641 0.65478,1.47949 1.46484,1.47949 0.81836,0 1.47949,-0.66308 1.47949,-1.47949 z"
       style="fill:#ffffff;fill-opacity:1;fill-rule:nonzero;stroke:none"
       id="path218"
       inkscape:connector-curvature="0" /><path
       d="m 82.36182,-125.46484 c 0,-15.2002 13.01318,-27.52051 29.06689,-27.52051 16.05371,0 29.0669,12.32031 29.0669,27.52051 0,15.19921 -13.01319,27.52148 -29.0669,27.52148 -16.05371,0 -29.06689,-12.32227 -29.06689,-27.52148 z"
       style="fill:none;stroke:#6a791b;stroke-width:2.91146994;stroke-linecap:butt;stroke-linejoin:miter;stroke-miterlimit:4;stroke-dasharray:none;stroke-opacity:1"
       id="path220"
       inkscape:connector-curvature="0" /><path
       d="m 85.84863,-137.16602 c 0,0 -0.23047,31.4795 19.65869,34.16211 0,0 -14.50244,-4.6875 -14.25586,-34.65625 0,0 1.9834,26.41895 19.667,29.29981 0,0 -14.26416,-3.75488 -14.01709,-35.44141 0,0 1.72217,27.5127 18.91406,29.72168 0,0 -13.26416,-4.4209 -13.50928,-33.15918 0,0 1.93848,25.24317 19.51612,27.97168 0,0 -12.87891,-4.63672 -13.86622,-29.20215 0,0 3.542,21.71192 18.96729,23.75391 0,0 -11.84229,-4.59277 -13.56055,-25.22754 0,0 3.73828,17.98828 18.08203,19.80371 0,0 -8.50048,-2.60742 -12.92382,-20.04785 0,0 5.48046,13.26172 16.74316,14.61719 0,0 -8.63867,-3.5625 -11.83008,-16.09082 0,0 -24.3208,-9.82617 -37.58545,14.49511 z"
       style="fill:#6a791b;fill-opacity:1;fill-rule:nonzero;stroke:none"
       id="path222"
       inkscape:connector-curvature="0" /></g></svg>